<ttFont>
          <CharString index="0">
            hlineto
            -106 callgsubr
            return
          </CharString>
          <CharString index="1">
            vlineto
            9 4 5 8 vhcurveto
            54 -105 callgsubr
            return
          </CharString>
          <CharString index="2">
            18 6 7 17 hvcurveto
            57 181 callgsubr
            return
          </CharString>
          <CharString index="3">
            vlineto
            -103 callsubr
            return
          </CharString>
          <CharString index="4">
            9 -85 callgsubr
            vhcurveto
            return
          </CharString>
          <CharString index="5">
            -16 -8 85 callsubr
            8 -53 callsubr
            return
          </CharString>
          <CharString index="6">
            7 17 -84 callsubr
            return
          </CharString>
          <CharString index="7">
            8 4 -5 -9 hvcurveto
            return
          </CharString>
          <CharString index="8">
            -90 callsubr
            16 8 8 16 -43 callsubr
            15 -8 8 -16 vhcurveto
            return
          </CharString>
          <CharString index="9">
            -96 callsubr
            -123 194 rlineto
            return
          </CharString>
          <CharString index="10">
            hlineto
            -100 callsubr
            return
          </CharString>
          <CharString index="11">
            -44 callgsubr
            -68 callgsubr
            -72 vlineto
            29 -38 -67 callgsubr
            return
          </CharString>
          <CharString index="12">
            4 -86 hlineto
            -16 8 -8 15 vhcurveto
            70 -92 callgsubr
            return
          </CharString>
          <CharString index="13">
            417 callgsubr
            144 callgsubr
            hvcurveto
            -19 8 13 -15 24 hhcurveto
            49 hlineto
            15 7 10 13 5 -1 5 -1 5 hvcurveto
            -3 11 -4 12 16 vvcurveto
            34 21 3 33 vhcurveto
            return
          </CharString>
          <CharString index="14">
            7 -1 3 -5 -8 vvcurveto
            return
          </CharString>
          <CharString index="15">
            hlineto
            16 8 8 15 -80 callsubr
            return
          </CharString>
          <CharString index="16">
            hlineto
            -93 callsubr
            return
          </CharString>
          <CharString index="17">
            -1 callgsubr
            23 hlineto
            49 28 -24 -48 hvcurveto
            -30 86 callsubr
            -19 -59 callgsubr
            37 34 callsubr
            42 14 callsubr
            82 hlineto
            9 -85 callgsubr
            vhcurveto
            303 hlineto
            return
          </CharString>
          <CharString index="18">
            hlineto
            -88 callgsubr
            return
          </CharString>
          <CharString index="19">
            rmoveto
            11 callgsubr
            -46 vlineto
            -16 8 -8 17 vhcurveto
            67 90 callsubr
            52 388 callsubr
            -102 13 callgsubr
            -72 vlineto
            31 -38 -9 callgsubr
            return
          </CharString>
          <CharString index="20">
            -97 callsubr
            -251 vlineto
            -89 callgsubr
            return
          </CharString>
          <CharString index="21">
            hlineto
            -86 callgsubr
            return
          </CharString>
          <CharString index="22">
            -64 callgsubr
            -325 118 rmoveto
            -77 callgsubr
            return
          </CharString>
          <CharString index="23">
            -43 callsubr
            16 return
          </CharString>
          <CharString index="24">
            hlineto
            48 16 -18 -56 hvcurveto
            148 callsubr
            14 vhcurveto
            70 hlineto
            17 258 callsubr
            5 vlineto
            112 -56 68 -125 vhcurveto
            endchar
          </CharString>
          <CharString index="25">
            19 hlineto
            43 30 17 22 13 hvcurveto
            -50 callsubr
            return
          </CharString>
          <CharString index="26">
            -8 8 -16 vhcurveto
            return
          </CharString>
          <CharString index="27">
            hvcurveto
            57 -87 callgsubr
            return
          </CharString>
          <CharString index="28">
            -86 callsubr
            4 return
          </CharString>
          <CharString index="29">
            hlineto
            432 callgsubr
            return
          </CharString>
          <CharString index="30">
            235 callsubr
            23 vlineto
            47 12 16 46 vhcurveto
            7 hlineto
            17 8 6 119 callsubr
            -17 vhcurveto
            -19 hlineto
            -108 -51 -62 -87 hvcurveto
            -47 vlineto
            return
          </CharString>
          <CharString index="31">
            -4 -6 -2 -4 -7 vvcurveto
            -11 8 -5 13 vhcurveto
            88 hlineto
            12 7 5 8 5 hvcurveto
            66 98 rlineto
            5 hlineto
            65 -98 rlineto
            -8 5 7 -5 12 hhcurveto
            88 hlineto
            13 8 5 11 7 -2 4 -4 6 hvcurveto
            return
          </CharString>
          <CharString index="32">
            -73 callgsubr
            46 -91 callsubr
            return
          </CharString>
          <CharString index="33">
            -17 -7 -7 -55 callgsubr
            -17 7 -7 17 vhcurveto
            return
          </CharString>
          <CharString index="34">
            187 callgsubr
            267 8 callsubr
            return
          </CharString>
          <CharString index="35">
            141 58 callgsubr
            -128 -62 callgsubr
            return
          </CharString>
          <CharString index="36">
            87 callsubr
            181 -104 callsubr
            return
          </CharString>
          <CharString index="37">
            -8 182 284 rmoveto
            -7 -4 3 8 hvcurveto
            48 304 callgsubr
            42 hlineto
            43 15 -16 -42 hvcurveto
            -48 vlineto
            -8 -3 -3 -8 vhcurveto
            113 -284 rmoveto
            208 callsubr
            66 vlineto
            15 386 callsubr
            -202 456 callsubr
            41 hvcurveto
            22 32 callgsubr
            251 hlineto
            14 248 callsubr
            -60 58 -105 vhcurveto
            -79 -28 callsubr
            return
          </CharString>
          <CharString index="38">
            -93 callgsubr
            165 -38 callgsubr
            29 -38 6 callgsubr
            return
          </CharString>
          <CharString index="39">
            -12 -6 -8 -10 -3 1 -4 2 -3 hvcurveto
            89 -150 rlineto
            -8 5 9 -8 12 hhcurveto
            76 -70 callgsubr
            return
          </CharString>
          <CharString index="40">
            324 callgsubr
            82 1 callsubr
            return
          </CharString>
          <CharString index="41">
            vlineto
            -36 -3 -32 -66 vhcurveto
            -66 hlineto
            -27 callsubr
            105 hlineto
            95 50 64 97 hvcurveto
            return
          </CharString>
          <CharString index="42">
            -75 callsubr
            -194 vlineto
            -98 63 -61 97 vhcurveto
            return
          </CharString>
          <CharString index="43">
            -63 callgsubr
            -8 hlineto
            -56 281 callsubr
            return
          </CharString>
          <CharString index="44">
            -42 -13 13 45 hvcurveto
            20 vlineto
            25 16 13 20 vhcurveto
            62 293 callsubr
            16 -80 callsubr
            -62 181 callsubr
            50 vlineto
            26 13 10 18 vhcurveto
            return
          </CharString>
          <CharString index="45">
            39 -6 callsubr
            16 -8 8 -16 vhcurveto
            return
          </CharString>
          <CharString index="46">
            rmoveto
            -93 callgsubr
            return
          </CharString>
          <CharString index="47">
            -95 callgsubr
            69 hlineto
            16 8 return
          </CharString>
          <CharString index="48">
            vlineto
            -85 42 -43 93 vhcurveto
            -66 callgsubr
            return
          </CharString>
          <CharString index="49">
            13 14 2 18 33 vvcurveto
            99 -104 callsubr
            return
          </CharString>
          <CharString index="50">
            -87 callsubr
            -110 -59 -64 -106 -1 hvcurveto
            return
          </CharString>
          <CharString index="51">
            -114 46 -59 109 vhcurveto
            -62 callsubr
            return
          </CharString>
          <CharString index="52">
            vlineto
            -58 callgsubr
            return
          </CharString>
          <CharString index="53">
            90 callgsubr
            -16 7 -5 14 vhcurveto
            84 415 callsubr
            -84 hlineto
            -22 callsubr
            -303 vlineto
            236 callgsubr
            -37 117 callgsubr
            320 -47 callgsubr
            return
          </CharString>
          <CharString index="54">
            -8 16 vhcurveto
            return
          </CharString>
          <CharString index="55">
            86 hlineto
            20 11 -8 -30 hvcurveto
            -21 vlineto
            -28 -11 -9 -20 vhcurveto
            -54 hlineto
            -42 -21 1 41 26 callgsubr
            -4 vlineto
            return
          </CharString>
          <CharString index="56">
            rlineto
            -3 -4 -2 -4 -4 vvcurveto
            -8 6 -8 12 vhcurveto
            return
          </CharString>
          <CharString index="57">
            4 -95 -42 callgsubr
            67 -89 callsubr
            return
          </CharString>
          <CharString index="58">
            16 336 186 rmoveto
            236 callgsubr
            -37 48 callsubr
            -102 -389 rmoveto
            90 callgsubr
            -16 7 -5 14 vhcurveto
            84 415 callsubr
            -231 -28 callsubr
            return
          </CharString>
          <CharString index="59">
            -54 callgsubr
            79 hlineto
            13 8 9 12 7 -3 6 -3 5 hvcurveto
            return
          </CharString>
          <CharString index="60">
            hlineto
            -30 callgsubr
            return
          </CharString>
          <CharString index="61">
            -9 -4 -5 -8 vhcurveto
            return
          </CharString>
          <CharString index="62">
            rmoveto
            -75 callgsubr
            return
          </CharString>
          <CharString index="63">
            132 callsubr
            4 hlineto
            71 47 53 78 hvcurveto
            139 -104 callsubr
            243 110 callsubr
            -91 44 -65 100 vhcurveto
            20 hlineto
            32 2 28 11 14 22 rrcurveto
            return
          </CharString>
          <CharString index="64">
            hvcurveto
            57 vlineto
            return
          </CharString>
          <CharString index="65">
            50 332 333 callgsubr
            -112 188 callsubr
            -317 7 callgsubr
            20 395 callgsubr
            71 135 callsubr
            -305 193 callgsubr
            return
          </CharString>
          <CharString index="66">
            -77 -19 36 57 hvcurveto
            13 -52 callgsubr
            return
          </CharString>
          <CharString index="67">
            hlineto
            48 28 18 22 13 hvcurveto
            84 callgsubr
            return
          </CharString>
          <CharString index="68">
            hlineto
            -63 callsubr
            return
          </CharString>
          <CharString index="69">
            4 236 callsubr
            -17 vhcurveto
            -62 hlineto
            -14 310 callgsubr
            -4 342 callgsubr
            return
          </CharString>
          <CharString index="70">
            31 14 16 33 vhcurveto
            22 hlineto
            16 8 8 14 248 callgsubr
            -32 hlineto
            -23 -14 13 23 hvcurveto
            71 vlineto
            31 16 18 32 vhcurveto
            153 hlineto
            9 -1 4 -3 -9 vvcurveto
            -65 vlineto
            -12 -2 -11 -3 -10 vhcurveto
            -39 287 callsubr
            32 hlineto
            16 10 -11 -14 hvcurveto
            return
          </CharString>
          <CharString index="71">
            hlineto
            -93 callgsubr
            return
          </CharString>
          <CharString index="72">
            -39 callgsubr
            -3 10 12 vvcurveto
            34 21 3 33 vhcurveto
            return
          </CharString>
          <CharString index="73">
            64 callgsubr
            51 hlineto
            return
          </CharString>
          <CharString index="74">
            -51 callsubr
            86 hlineto
            16 11 5 11 10 hvcurveto
            return
          </CharString>
          <CharString index="75">
            -20 callsubr
            26 109 callsubr
            return
          </CharString>
          <CharString index="76">
            -8 -4 5 9 361 callsubr
            return
          </CharString>
          <CharString index="77">
            623 -50 callgsubr
            return
          </CharString>
          <CharString index="78">
            -91 callgsubr
            endchar
          </CharString>
          <CharString index="79">
            188 callsubr
            -184 7 callgsubr
            return
          </CharString>
          <CharString index="80">
            -16 -8 153 callsubr
            -15 8 -53 callsubr
            return
          </CharString>
          <CharString index="81">
            -101 60 rlineto
            -22 12 -21 13 20 vvcurveto
            5 vlineto
            16 18 9 31 vhcurveto
            139 hlineto
            16 4 5 15 hvcurveto
            65 31 callsubr
            -167 hlineto
            -105 -48 -42 -94 -66 35 -34 64 -33 hvcurveto
            99 -55 rlineto
            24 -13 17 -15 -18 vvcurveto
            -5 vlineto
            -21 -19 -9 -30 vhcurveto
            -167 hlineto
            -16 -4 -5 -15 hvcurveto
            -64 vlineto
            -14 5 -7 15 vhcurveto
            return
          </CharString>
          <CharString index="82">
            -60 callsubr
            6 17 hvcurveto
            return
          </CharString>
          <CharString index="83">
            -8 -4 5 9 hvcurveto
            return
          </CharString>
          <CharString index="84">
            16 8 8 15 hvcurveto
            53 21 callgsubr
            return
          </CharString>
          <CharString index="85">
            -14 -7 -5 -16 hvcurveto
            return
          </CharString>
          <CharString index="86">
            -74 callsubr
            36 -97 callsubr
            -234 199 callgsubr
            23 vlineto
            25 16 13 20 vhcurveto
            64 293 callsubr
            16 hvcurveto
            57 21 callgsubr
            -24 -12 12 23 hvcurveto
            43 vlineto
            26 13 10 18 vhcurveto
            return
          </CharString>
          <CharString index="87">
            -15 -8 -7 -14 hvcurveto
            -64 vlineto
            -15 226 callsubr
            return
          </CharString>
          <CharString index="88">
            vlineto
            -46 callsubr
            return
          </CharString>
          <CharString index="89">
            -16 18 callgsubr
            return
          </CharString>
          <CharString index="90">
            vlineto
            -18 callsubr
            return
          </CharString>
          <CharString index="91">
            133 callgsubr
            -275 71 callgsubr
            return
          </CharString>
          <CharString index="92">
            -6 -30 callsubr
            return
          </CharString>
          <CharString index="93">
            -104 callgsubr
            271 vlineto
            40 21 23 43 vhcurveto
            return
          </CharString>
          <CharString index="94">
            66 400 rmoveto
            8 3 -3 -8 hvcurveto
            -227 vlineto
            -105 62 -57 104 vhcurveto
            61 225 callgsubr
            -5 7 -16 vhcurveto
            -40 hlineto
            -43 -17 17 41 hvcurveto
            221 32 callgsubr
            78 225 callgsubr
            -5 7 -16 vhcurveto
            -78 hlineto
            -8 -4 3 8 hvcurveto
            95 vlineto
            15 429 callsubr
            -84 hlineto
            -14 -8 -6 -15 hvcurveto
            -95 vlineto
            -8 -3 -3 -8 vhcurveto
            -40 124 callsubr
            -69 vlineto
            -15 4 -5 17 vhcurveto
            return
          </CharString>
          <CharString index="95">
            118 -61 callsubr
            return
          </CharString>
          <CharString index="96">
            -5 callsubr
            -28 vlineto
            return
          </CharString>
          <CharString index="97">
            455 callgsubr
            -1 -5 vhcurveto
            -149 133 rlineto
            3 9 11 2 13 hhcurveto
            -34 callsubr
            return
          </CharString>
          <CharString index="98" raw="1">
            230ac106 0b  
          </CharString>
          <CharString index="99">
            hlineto
            -31 callsubr
            return
          </CharString>
          <CharString index="100">
            hvcurveto
            -57 vlineto
            return
          </CharString>
          <CharString index="101">
            -89 callsubr
            52 vlineto
            return
          </CharString>
          <CharString index="102">
            -16 -8 -8 -15 hvcurveto
            -56 vlineto
            -17 8 -8 16 vhcurveto
            70 0 callsubr
            return
          </CharString>
          <CharString index="103">
            4 hlineto
            -58 callsubr
            return
          </CharString>
          <CharString index="104">
            hhcurveto
            -55 0 callgsubr
            return
          </CharString>
          <CharString index="105">
            hlineto
            33 26 15 40 hvcurveto
            return
          </CharString>
          <CharString index="106">
            50 hlineto
            -23 callsubr
            return
          </CharString>
          <CharString index="107">
            76 callsubr
            -48 2 callgsubr
            return
          </CharString>
          <CharString index="108">
            hlineto
            -103 callsubr
            return
          </CharString>
          <CharString index="109">
            4 callsubr
            306 102 callgsubr
            return
          </CharString>
          <CharString index="110">
            98 callgsubr
            -280 261 callgsubr
            399 hlineto
            7 5 -5 -9 hvcurveto
            -53 vlineto
            -9 -5 -3 -7 -2 vhcurveto
            -26 -7 -21 -12 -15 -16 rrcurveto
            26 -26 -38 14 -52 hhcurveto
            -9 hlineto
            -111 -57 -62 -114 hvcurveto
            -53 339 callsubr
            51 38 13 26 26 hvcurveto
            return
          </CharString>
          <CharString index="111">
            rmoveto
            -31 callgsubr
            return
          </CharString>
          <CharString index="112">
            25 callsubr
            48 hlineto
            return
          </CharString>
          <CharString index="113">
            hlineto
            7 callsubr
            return
          </CharString>
          <CharString index="114">
            -17 -7 -8 -16 hvcurveto
            return
          </CharString>
          <CharString index="115">
            40 callsubr
            -80 -55 -40 -82 hvcurveto
            -26 51 callgsubr
            return
          </CharString>
          <CharString index="116">
            -28 hvcurveto
            -94 6 callsubr
            -74 vlineto
            -87 51 -69 140 vhcurveto
            23 219 callsubr
            -60 hlineto
            -25 callsubr
            482 -104 callsubr
            56 -105 callgsubr
            endchar
          </CharString>
          <CharString index="117">
            -51 callsubr
            83 hlineto
            13 return
          </CharString>
          <CharString index="118">
            vlineto
            37 -18 22 -17 8 vhcurveto
            5 124 -2 callgsubr
            return
          </CharString>
          <CharString index="119">
            rmoveto
            5 callsubr
            return
          </CharString>
          <CharString index="120">
            -52 -19 25 47 hvcurveto
            return
          </CharString>
          <CharString index="121">
            vlineto
            108 -62 62 -108 vhcurveto
            324 callgsubr
            return
          </CharString>
          <CharString index="122">
            138 callsubr
            83 vlineto
            99 -61 49 -94 -100 -55 -49 -99 vhcurveto
            return
          </CharString>
          <CharString index="123">
            83 169 hmoveto
            24 callsubr
            return
          </CharString>
          <CharString index="124">
            19 48 21 327 callsubr
            383 hlineto
            15 5 9 14 hvcurveto
            76 vlineto
            14 -5 5 -15 vhcurveto
            -254 4 hlineto
            249 362 rlineto
            11 16 4 11 25 vvcurveto
            86 31 callsubr
            -355 335 callgsubr
            hvcurveto
            -76 vlineto
            -14 6 -7 15 vhcurveto
            239 -4 hlineto
            -265 -391 rlineto
            -12 -15 -1 -16 -18 vvcurveto
            return
          </CharString>
          <CharString index="125">
            118 -50 callgsubr
            return
          </CharString>
          <CharString index="126">
            15 -8 7 -14 vhcurveto
            return
          </CharString>
          <CharString index="127">
            252 callgsubr
            50 -92 callsubr
            return
          </CharString>
          <CharString index="128">
            17 167 callgsubr
            -104 63 -50 70 vhcurveto
            5 173 callsubr
            27 callsubr
            return
          </CharString>
          <CharString index="129">
            220 callgsubr
            303 vlineto
            43 14 33 55 vhcurveto
            36 135 callsubr
            -320 378 callsubr
            15 7 5 16 hvcurveto
            326 vlineto
            105 -52 429 callgsubr
            -41 -41 -15 -39 -16 hvcurveto
            -4 return
          </CharString>
          <CharString index="130">
            86 vlineto
            50 -14 37 -30 21 vhcurveto
            20 15 17 26 38 vvcurveto
            43 vlineto
            463 callgsubr
            vhcurveto
            43 hlineto
            194 callsubr
            56 370 callgsubr
          </CharString>
          <CharString index="131">
            19 callgsubr
            371 4 vlineto
            200 -372 rlineto
            -1 1 9 -19 22 hhcurveto
            73 200 callgsubr
            -83 hlineto
            -22 callsubr
            -372 -4 vlineto
            -202 379 rlineto
            2 -1 -7 12 -20 hhcurveto
            -75 96 callgsubr
            return
          </CharString>
          <CharString index="132">
            -75 callsubr
            -210 vlineto
            -98 63 -61 97 vhcurveto
            return
          </CharString>
          <CharString index="133">
            hlineto
            13 callsubr
            return
          </CharString>
          <CharString index="134">
            41 15 -17 -12 10 hvcurveto
            -7 6 5 -6 8 150 callgsubr
            -67 callsubr
            209 -78 callsubr
            return
          </CharString>
          <CharString index="135">
            327 -64 callgsubr
            return
          </CharString>
          <CharString index="136">
            251 callsubr
            -14 callgsubr
            return
          </CharString>
          <CharString index="137">
            323 callsubr
            7 -15 vhcurveto
            return
          </CharString>
          <CharString index="138">
            vlineto
            14 -5 7 -15 vhcurveto
            return
          </CharString>
          <CharString index="139">
            42 320 192 rmoveto
            84 callgsubr
            6 17 hvcurveto
            262 23 callgsubr
            22 hlineto
            53 callsubr
            183 -105 callgsubr
            -642 217 callgsubr
            86 hlineto
            16 11 5 11 10 hvcurveto
            65 71 rlineto
            6 171 333 callsubr
            133 -97 callsubr
            -178 vlineto
            -37 -19 -32 -55 vhcurveto
            return
          </CharString>
          <CharString index="140">
            -103 59 -58 102 vhcurveto
            62 callsubr
            return
          </CharString>
          <CharString index="141">
            hlineto
            110 59 64 106 1 hvcurveto
            return
          </CharString>
          <CharString index="142">
            32 hvcurveto
            138 -2 callsubr
            86 -104 callsubr
            return
          </CharString>
          <CharString index="143">
            -105 175 callsubr
            return
          </CharString>
          <CharString index="144">
            35 -15 -27 22 -67 hhcurveto
            return
          </CharString>
          <CharString index="145">
            50 callgsubr
            hvcurveto
            return
          </CharString>
          <CharString index="146">
            -59 264 114 callgsubr
            501 32 callgsubr
            114 hlineto
            15 6 7 14 hvcurveto
            68 327 callgsubr
            -378 124 callsubr
            -68 383 callsubr
            114 hlineto
            8 3 -3 -8 hvcurveto
            -501 vlineto
            -16 7 -5 15 vhcurveto
            return
          </CharString>
          <CharString index="147">
            207 callgsubr
            -5 -5 -7 vhcurveto
            -80 hlineto
            return
          </CharString>
          <CharString index="148">
            vlineto
            -25 7 -12 14 -6 vhcurveto
            -4 -230 vlineto
            387 callsubr
            -3 -9 hvcurveto
            -30 -19 callsubr
            -85 365 callgsubr
            -15 vlineto
            -85 42 -43 93 vhcurveto
            93 hlineto
            40 callgsubr
            92 vlineto
            9 4 3 8 vhcurveto
            64 -25 callgsubr
            -108 hlineto
            -36 -9 9 30 hvcurveto
            endchar
          </CharString>
          <CharString index="149">
            -30 callsubr
            330 -87 callsubr
            return
          </CharString>
          <CharString index="150">
            138 -169 rmoveto
            110 55 63 106 28 hvcurveto
            122 488 rlineto
            14 3 -8 8 -15 hhcurveto
            -84 hlineto
            -13 -9 -6 -15 -3 hvcurveto
            -85 -369 rlineto
            -4 hlineto
            -86 369 rlineto
            16 -4 -8 5 -13 hhcurveto
            -89 hlineto
            -14 -5 -7 -14 4 hvcurveto
            117 -441 rlineto
            -14 4 6 -7 15 hhcurveto
            53 hlineto
            -63 -15 -17 -22 -88 hhcurveto
            -21 hlineto
            -15 -5 -8 -14 hvcurveto
            -67 vlineto
            -14 5 -8 15 vhcurveto
            return
          </CharString>
          <CharString index="151">
            rmoveto
            7 -5 -7 4 -10 174 callgsubr
            457 callgsubr
            463 callgsubr
            4 hvcurveto
            32 66 33 -66 rlineto
            -9 3 444 callgsubr
            return
          </CharString>
          <CharString index="152">
            hlineto
            -26 -10 11 23 hvcurveto
            10 vlineto
            22 -10 9 -16 vhcurveto
            -49 hlineto
            -20 -9 -12 -22 hvcurveto
            -8 vlineto
            -80 41 -48 77 vhcurveto
            return
          </CharString>
          <CharString index="153">
            309 callgsubr
            47 vlineto
            15 -7 7 -15 vhcurveto
            -84 hlineto
            -14 -7 -7 -15 hvcurveto
            -41 193 callgsubr
            -68 117 callgsubr
            305 vlineto
            42 16 17 42 vhcurveto
            68 135 callsubr
            -41 vlineto
            -15 7 -7 158 callgsubr
            7 15 hvcurveto
            47 vlineto
            105 -61 58 -104 vhcurveto
            -109 312 callsubr
          </CharString>
          <CharString index="154">
            -58 callgsubr
            -72 vlineto
            29 -38 6 callgsubr
            79 -70 callgsubr
            -124 196 rlineto
            return
          </CharString>
          <CharString index="155">
            81 callgsubr
            94 356 callsubr
            -8 hvcurveto
            return
          </CharString>
          <CharString index="156">
            rlineto
            13 -8 -10 5 -14 hhcurveto
            -81 hlineto
            -12 -7 -9 -10 -6 2 -6 4 -6 hvcurveto
            52 -79 return
          </CharString>
          <CharString index="157">
            -30 hlineto
            53 callgsubr
          </CharString>
          <CharString index="158">
            rmoveto
            56 callgsubr
            return
          </CharString>
          <CharString index="159">
            87 callsubr
            121 vlineto
            155 -164 rlineto
            -13 -16 -19 -10 -27 hhcurveto
            return
          </CharString>
          <CharString index="160">
            37 16 -13 -12 10 hvcurveto
            -9 8 5 -8 9 150 callgsubr
            -18 138 callgsubr
            92 hlineto
            9 -85 callgsubr
            vhcurveto
            return
          </CharString>
          <CharString index="161">
            -55 -39 callsubr
            return
          </CharString>
          <CharString index="162">
            407 callgsubr
            86 hlineto
            15 5 4 17 hvcurveto
            468 232 callgsubr
            -86 hlineto
            -14 -6 -5 -16 hvcurveto
            return
          </CharString>
          <CharString index="163">
            rmoveto
            169 callgsubr
            8 1 8 1 7 vhcurveto
            154 -137 rlineto
            -4 -11 -12 -3 -15 hhcurveto
            return
          </CharString>
          <CharString index="164">
            rmoveto
            61 callgsubr
            return
          </CharString>
          <CharString index="165">
            70 callsubr
            24 197 callgsubr
            18 11 callsubr
            return
          </CharString>
          <CharString index="166">
            -59 callgsubr
            44 -11 callgsubr
            -139 hmoveto
            -100 callsubr
            -203 vlineto
            -37 -18 -18 -35 vhcurveto
            -4 hlineto
            -38 -16 19 36 hvcurveto
            203 -104 callsubr
            endchar
          </CharString>
          <CharString index="167">
            126 callgsubr
            23 hlineto
            49 28 -24 -48 hvcurveto
            -30 86 callsubr
            -19 -59 callgsubr
            37 34 callsubr
            42 14 callsubr
            hlineto
            return
          </CharString>
          <CharString index="168">
            rmoveto
            -47 -14 -27 -45 vhcurveto
            -6 hlineto
            -45 -14 27 47 hvcurveto
            53 vlineto
            47 14 27 45 vhcurveto
            6 326 callgsubr
            return
          </CharString>
          <CharString index="169">
            18 hlineto
            104 58 56 105 hvcurveto
            199 -104 callsubr
            return
          </CharString>
          <CharString index="170">
            -97 callsubr
            -258 vlineto
            -40 -21 -23 -43 vhcurveto
            -23 hlineto
            -49 -28 24 48 hvcurveto
            30 vlineto
            48 24 24 49 vhcurveto
            19 -92 callsubr
            -37 hlineto
            -41 -33 -9 -16 -27 hvcurveto
            return
          </CharString>
          <CharString index="171">
            rmoveto
            14 -7 95 callsubr
            return
          </CharString>
          <CharString index="172">
            145 callgsubr
            -286 -86 callsubr
            return
          </CharString>
          <CharString index="173">
            -94 callgsubr
            258 hlineto
            return
          </CharString>
          <CharString index="174">
            462 rmoveto
            106 callgsubr
            -495 287 callgsubr
            306 -21 callgsubr
            endchar
          </CharString>
          <CharString index="175">
            286 -94 callgsubr
            return
          </CharString>
          <CharString index="176">
            -53 415 299 callgsubr
            8 -15 vhcurveto
            -211 hlineto
            -8 -4 3 8 hvcurveto
            500 99 callsubr
            return
          </CharString>
          <CharString index="177">
            76 callgsubr
            38 64 hvcurveto
            return
          </CharString>
          <CharString index="178">
            rmoveto
            -27 19 rlineto
            6 1 -85 callgsubr
            vvcurveto
            58 vlineto
            55 -38 rlineto
            -26 -225 rmoveto
            120 callgsubr
            -82 293 callgsubr
            25 274 callsubr
            90 hlineto
            49 20 -20 -48 hvcurveto
            -217 369 rmoveto
            30 -21 rlineto
            0 vlineto
            -8 -4 -5 -9 hvcurveto
            -55 vlineto
            -58 41 rlineto
            -126 132 rmoveto
            7 callsubr
            -56 328 callsubr
            57 143 callsubr
            -4 vlineto
            -49 -29 -17 -44 -60 vvcurveto
            -32 313 callgsubr
            117 343 callgsubr
            41 vlineto
            60 -17 44 -49 29 vhcurveto
            4 vlineto
            return
          </CharString>
          <CharString index="179">
            133 hlineto
            110 45 79 75 hvcurveto
            23 callsubr
          </CharString>
          <CharString index="180">
            -66 callgsubr
            31 231 callgsubr
            41 vlineto
            81 -50 40 -80 vhcurveto
            -50 288 callsubr
            224 -97 callsubr
            -323 62 callgsubr
            65 -105 callgsubr
            return
          </CharString>
          <CharString index="181">
            46 25 hvcurveto
            1 2 2 5 5 vvcurveto
            10 -5 7 -11 8 vhcurveto
            -28 22 rlineto
            8 -10 -4 1 -5 hhcurveto
            return
          </CharString>
          <CharString index="182">
            48 24 22 49 vhcurveto
            89 -97 callsubr
            return
          </CharString>
          <CharString index="183">
            -4 hlineto
            -17 -9 -7 -14 -19 vvcurveto
            return
          </CharString>
          <CharString index="184">
            -91 380 89 rmoveto
            300 callsubr
            -129 117 callgsubr
            172 vlineto
            42 16 17 42 vhcurveto
            129 225 callgsubr
            -6 7 -15 vhcurveto
            -149 -28 callsubr
            149 hlineto
            208 callsubr
            return
          </CharString>
          <CharString index="185">
            hlineto
            16 11 5 11 10 hvcurveto
            return
          </CharString>
          <CharString index="186">
            101 callsubr
            -103 51 -66 116 vhcurveto
            return
          </CharString>
          <CharString index="187">
            rmoveto
            16 8 8 16 248 callgsubr
            -511 6 callsubr
            -56 328 callsubr
            283 332 callgsubr
            -110 61 -61 109 vhcurveto
            75 343 callgsubr
            107 callsubr
            -144 -184 rmoveto
            47 20 -25 -43 hvcurveto
            -61 vlineto
            177 callsubr
            endchar
          </CharString>
          <CharString index="188">
            rmoveto
            -27 callsubr
            53 385 callgsubr
            -283 vlineto
            -110 71 -85 129 vhcurveto
            153 hlineto
            194 callsubr
            57 vlineto
            16 -7 8 -17 vhcurveto
            -128 hlineto
            -73 -37 33 61 hvcurveto
            278 380 callgsubr
            156 385 callgsubr
            -85 vlineto
            -49 -25 -13 -48 vhcurveto
            -16 hlineto
            -16 -8 -7 -16 hvcurveto
            -55 123 callsubr
            33 hlineto
            109 62 56 108 hvcurveto
            85 380 callgsubr
            41 -92 callsubr
            endchar
          </CharString>
          <CharString index="189">
            -21 vlineto
            -16 8 -53 callsubr
            68 hlineto
            16 7 -49 callgsubr
            15 vlineto
            48 23 22 48 vhcurveto
            26 hlineto
            return
          </CharString>
          <CharString index="190">
            118 96 callsubr
            return
          </CharString>
          <CharString index="191">
            -10 -5 -14 139 callgsubr
            return
          </CharString>
          <CharString index="192">
            -8 -15 254 callgsubr
            return
          </CharString>
          <CharString index="193">
            vlineto
            120 callgsubr
            return
          </CharString>
          <CharString index="194">
            -47 -17 21 45 hvcurveto
            return
          </CharString>
          <CharString index="195">
            95 callgsubr
            hlineto
            endchar
          </CharString>
          <CharString index="196">
            hlineto
            33 21 93 callgsubr
            return
          </CharString>
          <CharString index="197">
            hlineto
            15 -78 callgsubr
            return
          </CharString>
          <CharString index="198">
            rmoveto
            -56 callgsubr
            -1 5 6 vvcurveto
            return
          </CharString>
          <CharString index="199">
            -1 callsubr
            -110 -59 -64 -106 -1 hvcurveto
            220 callsubr
            return
          </CharString>
          <CharString index="200">
            -4 hlineto
            -17 -7 -11 -16 -25 vvcurveto
            -86 vlineto
            -35 20 -29 35 -6 vhcurveto
            -4 return
          </CharString>
          <CharString index="201">
            -106 callgsubr
            -249 217 callsubr
            endchar
          </CharString>
          <CharString index="202">
            5 -12 vhcurveto
            -73 110 callgsubr
            -166 vlineto
            -15 return
          </CharString>
          <CharString index="203">
            rmoveto
            8 callgsubr
            return
          </CharString>
          <CharString index="204">
            rlineto
            45 38 18 41 67 vvcurveto
            98 -44 57 -121 -123 -45 -57 -94 -71 35 -43 43 -32 vhcurveto
            -116 -65 rlineto
            -5 -3 -3 -5 -5 vvcurveto
            -5 2 -4 4 -4 vhcurveto
            49 -49 rlineto
            -5 4 7 -3 8 hhcurveto
            4 6 2 2 4 hvcurveto
            134 79 return
          </CharString>
          <CharString index="205">
            302 rmoveto
            -37 -18 -18 -35 vhcurveto
            -4 hlineto
            -38 -16 19 36 hvcurveto
            203 -104 callsubr
            87 -97 callsubr
            return
          </CharString>
          <CharString index="206">
            vlineto
            16 -7 5 -14 vhcurveto
            -85 96 callgsubr
            return
          </CharString>
          <CharString index="207">
            -105 -57 -58 -105 hvcurveto
            -19 vlineto
            -8 -4 -3 -8 vhcurveto
            -46 hlineto
            -17 -4 -5 -15 hvcurveto
            -69 383 callsubr
            46 225 callsubr
            -368 378 callsubr
            14 8 5 16 hvcurveto
            368 vlineto
            8 3 3 8 vhcurveto
            return
          </CharString>
          <CharString index="208">
            -31 callgsubr
            303 179 callsubr
            return
          </CharString>
          <CharString index="209">
            hlineto
            -75 callsubr
            -201 vlineto
            return
          </CharString>
          <CharString index="210">
            -24 callsubr
            108 89 callgsubr
            return
          </CharString>
          <CharString index="211">
            61 -61 109 vhcurveto
            return
          </CharString>
          <CharString index="212">
            hlineto
            100 callgsubr
            return
          </CharString>
          <CharString index="213">
            hhcurveto
            -19 callgsubr
            64 4 callgsubr
          </CharString>
          <CharString index="214">
            104 437 callsubr
            23 21 vvcurveto
            47 -104 callsubr
            return
          </CharString>
          <CharString index="215">
            vlineto
            110 -61 61 -109 vhcurveto
            return
          </CharString>
          <CharString index="216">
            hlineto
            42 28 -19 -47 hvcurveto
            return
          </CharString>
          <CharString index="217">
            -97 callsubr
            -233 vlineto
            -38 -7 -32 -53 vhcurveto
            161 callsubr
            return
          </CharString>
          <CharString index="218">
            166 callgsubr
            31 231 callgsubr
            41 vlineto
            81 -50 40 -80 vhcurveto
            -50 288 callsubr
            return
          </CharString>
          <CharString index="219">
            hlineto
            -20 callsubr
            6 109 callsubr
            -47 vlineto
            -36 -3 -32 -66 vhcurveto
            return
          </CharString>
          <CharString index="220">
            242 callsubr
            -62 107 vhcurveto
            return
          </CharString>
          <CharString index="221">
            rmoveto
            -250 vlineto
            411 callgsubr
            62 hlineto
            8 3 2 9 hvcurveto
            321 vlineto
            8 -4 3 -7 vhcurveto
            -59 hlineto
            -8 -5 -3 -4 -8 hvcurveto
            -49 -32 rlineto
            -6 -3 -2 -3 -7 vvcurveto
            -54 vlineto
            -7 2 -4 9 4 vhcurveto
            endchar
          </CharString>
          <CharString index="222">
            344 186 rmoveto
            236 callgsubr
            -45 81 callgsubr
            45 hlineto
            55 14 -33 -43 hvcurveto
            -102 -324 rmoveto
            37 45 15 39 16 hvcurveto
            4 -33 419 callsubr
            661 -47 callgsubr
            -226 -4 vlineto
            39 -16 -45 15 -37 hhcurveto
            -41 hlineto
            -104 -52 -58 -105 hvcurveto
            -184 253 callgsubr
            return
          </CharString>
          <CharString index="223">
            159 callsubr
            43 hlineto
            33 21 13 18 9 hvcurveto
            139 callsubr
          </CharString>
          <CharString index="224">
            rmoveto
            -46 callsubr
            return
          </CharString>
          <CharString index="225">
            147 callgsubr
            -95 280 rmoveto
            return
          </CharString>
          <CharString index="226">
            16 hvcurveto
            330 callsubr
            8 return
          </CharString>
          <CharString index="227">
            vlineto
            78 -50 40 -80 vhcurveto
            -123 hlineto
            -20 -11 4 26 25 11 4 20 hvcurveto
            157 -2 callsubr
            80 -104 callsubr
            74 4 callgsubr
          </CharString>
          <CharString index="228">
            vlineto
            91 -70 37 -82 -80 -60 -48 -68 vhcurveto
            return
          </CharString>
          <CharString index="229">
            105 callsubr
            -53 207 callsubr
            return
          </CharString>
          <CharString index="230">
            149 callgsubr
            vhcurveto
            return
          </CharString>
          <CharString index="231">
            hlineto
            183 callsubr
            return
          </CharString>
          <CharString index="232">
            25 46 66 vvcurveto
            130 callgsubr
          </CharString>
          <CharString index="233">
            56 171 114 callgsubr
            171 vlineto
            63 74 153 -245 rlineto
            -17 10 15 -4 22 hhcurveto
            73 hlineto
            18 8 9 16 -10 hvcurveto
            -212 332 190 263 rlineto
            14 11 -5 9 -14 hhcurveto
            -98 hlineto
            -22 -7 -5 -16 -10 hvcurveto
            -152 -223 -8 -13 -15 -24 -8 -25 rlinecurve
            -2 285 hlineto
            16 -7 5 -14 vhcurveto
            -85 96 callgsubr
            return
          </CharString>
          <CharString index="234">
            123 callgsubr
            16 vlineto
            31 14 16 33 vhcurveto
            22 hlineto
            16 8 8 14 248 callgsubr
            -32 hlineto
            -23 -14 13 23 hvcurveto
            71 vlineto
            31 16 18 32 vhcurveto
            return
          </CharString>
          <CharString index="235">
            -15 445 callgsubr
            -63 -108 hvcurveto
            82 callsubr
            return
          </CharString>
          <CharString index="236">
            204 callsubr
            -8 2 callgsubr
            -4 vlineto
            -98 54 -54 107 vhcurveto
            63 hlineto
            return
          </CharString>
          <CharString index="237">
            595 rmoveto
            15 6 8 14 hvcurveto
            44 327 callgsubr
            -197 124 callsubr
            -44 441 callsubr
            endchar
          </CharString>
          <CharString index="238">
            7 4 7 5 hvcurveto
            62 105 rlineto
            7 4 -2 6 -9 hhcurveto
            -60 hlineto
            -8 -6 -3 -9 return
          </CharString>
          <CharString index="239">
            vlineto
            29 -38 6 callgsubr
            77 -70 callgsubr
            -124 196 rlineto
            return
          </CharString>
          <CharString index="240">
            85 159 callgsubr
            return
          </CharString>
          <CharString index="241">
            rmoveto
            204 callgsubr
            -178 vlineto
            -37 -19 -32 -55 vhcurveto
            return
          </CharString>
          <CharString index="242">
            hlineto
            43 16 -17 -42 hvcurveto
            return
          </CharString>
          <CharString index="243">
            hvcurveto
            -290 -60 callgsubr
            return
          </CharString>
          <CharString index="244">
            290 rmoveto
            29 callgsubr
            return
          </CharString>
          <CharString index="245">
            hlineto
            127 56 65 100 hvcurveto
            return
          </CharString>
          <CharString index="246">
            4 -69 -29 callgsubr
            237 -29 callsubr
          </CharString>
          <CharString index="247">
            vlineto
            -17 8 -7 return
          </CharString>
          <CharString index="248">
            192 callsubr
            -109 -61 253 callsubr
            return
          </CharString>
          <CharString index="249">
            57 callgsubr
            4 -6 13 hhcurveto
            return
          </CharString>
          <CharString index="250">
            -91 callsubr
            -117 vlineto
            -38 14 -25 25 -15 vhcurveto
            return
          </CharString>
          <CharString index="251">
            vvcurveto
            34 21 3 33 vhcurveto
            108 -97 callsubr
            return
          </CharString>
          <CharString index="252">
            vlineto
            351 callgsubr
            return
          </CharString>
          <CharString index="253">
            rmoveto
            -15 -7 -7 -15 hvcurveto
            -72 194 callgsubr
            81 193 callsubr
            72 vlineto
            19 callsubr
            endchar
          </CharString>
          <CharString index="254">
            -36 callgsubr
            -93 vlineto
            return
          </CharString>
          <CharString index="255">
            -5 140 callsubr
            return
          </CharString>
          <CharString index="256">
            -71 callgsubr
            49 4 callgsubr
          </CharString>
          <CharString index="257">
            0 -33 -12 -36 -41 vhcurveto
            -46 -53 10 callsubr
            8 4 6 6 hvcurveto
            return
          </CharString>
          <CharString index="258">
            327 86 callgsubr
            return
          </CharString>
          <CharString index="259">
            650 rmoveto
            452 callsubr
            19 5 30 21 vhcurveto
            23 18 -85 callgsubr
            hhcurveto
            11 4 -5 -32 hvcurveto
            -9 vlineto
            -10 2 -3 9 vhcurveto
            39 hlineto
            8 2 3 10 hvcurveto
            37 vlineto
            40 -16 36 -55 -24 -17 -6 273 callgsubr
            11 vlineto
            10 407 callsubr
            -3 -2 -10 hvcurveto
            endchar
          </CharString>
          <CharString index="260">
            -8 -55 callgsubr
            return
          </CharString>
          <CharString index="261">
            177 callgsubr
            32 39 37 45 return
          </CharString>
          <CharString index="262">
            10 callsubr
            8 4 6 6 hvcurveto
            15 return
          </CharString>
          <CharString index="263">
            -104 callsubr
            134 -91 callsubr
            return
          </CharString>
          <CharString index="264">
            -28 vlineto
            -10 -5 -4 -8 vhcurveto
            -90 hlineto
            return
          </CharString>
          <CharString index="265">
            vlineto
            16 456 callgsubr
            return
          </CharString>
          <CharString index="266">
            -103 51 -66 116 vhcurveto
            return
          </CharString>
          <CharString index="267">
            vvcurveto
            -76 451 callgsubr
            87 hlineto
            54 callgsubr
            81 vlineto
            47 18 21 45 vhcurveto
            return
          </CharString>
          <CharString index="268">
            -7 67 callgsubr
            return
          </CharString>
          <CharString index="269">
            rmoveto
            78 callgsubr
            return
          </CharString>
          <CharString index="270">
            53 vlineto
            89 -31 54 -71 24 vhcurveto
            -9 3 -3 3 8 vvcurveto
            57 vlineto
            10 4 4 8 vhcurveto
            151 -78 callsubr
            endchar
          </CharString>
          <CharString index="271">
            0 callsubr
            -28 vlineto
            return
          </CharString>
          <CharString index="272">
            vlineto
            16 -8 7 return
          </CharString>
          <CharString index="273">
            rmoveto
            48 20 20 49 vhcurveto
            50 hlineto
            372 callsubr
            -159 417 rmoveto
            7 callsubr
            -56 328 callsubr
            283 332 callgsubr
            return
          </CharString>
          <CharString index="274">
            vlineto
            15 -9 5 -12 -10 vhcurveto
            -149 -115 rlineto
            -14 -10 -6 -5 -20 vvcurveto
            -41 vlineto
            -21 5 -5 15 -11 vhcurveto
            149 -115 rlineto
            12 -10 9 5 15 vvcurveto
            return
          </CharString>
          <CharString index="275">
            rlineto
            -8 -6 -2 -6 -6 vvcurveto
            -8 6 -7 12 vhcurveto
            107 hlineto
            13 11 5 7 9 hvcurveto
            return
          </CharString>
          <CharString index="276">
            16 -82 callgsubr
            return
          </CharString>
          <CharString index="277">
            435 callsubr
            240 callsubr
            -7 6 -13 hhcurveto
            -217 hmoveto
            -13 -9 -4 -15 322 callgsubr
            42 428 callsubr
            6 hvcurveto
            71 96 rlineto
            14 10 -6 6 -13 hhcurveto
            endchar
          </CharString>
          <CharString index="278">
            rmoveto
            -96 callgsubr
            83 -91 callsubr
            return
          </CharString>
          <CharString index="279">
            vhcurveto
            -14 hlineto
            -49 -27 20 51 hvcurveto
            26 182 callgsubr
            -68 hlineto
            -17 310 callgsubr
            -25 vlineto
            -112 64 -64 112 vhcurveto
            41 hlineto
            117 56 return
          </CharString>
          <CharString index="280">
            -4 hlineto
            150 callsubr
            8 7 23 26 29 35 21 25 23 29 25 29 rrcurveto
            -50 callsubr
            271 23 callgsubr
            23 hlineto
            return
          </CharString>
          <CharString index="281">
            -91 callsubr
            299 callsubr
            -29 hlineto
            return
          </CharString>
          <CharString index="282">
            60 -58 105 vhcurveto
            return
          </CharString>
          <CharString index="283">
            rmoveto
            -14 7 -5 13 vhcurveto
            72 hlineto
            13 7 6 14 hvcurveto
            199 vlineto
            15 -8 5 -10 -7 -7 -4 -6 -4 vhcurveto
            -53 -101 rlineto
            -13 -25 -10 -20 -34 vvcurveto
            return
          </CharString>
          <CharString index="284">
            262 callgsubr
            61 274 callsubr
            return
          </CharString>
          <CharString index="285">
            -98 55 -39 90 vhcurveto
            31 hlineto
            17 8 7 19 hvcurveto
            43 vlineto
            17 -8 8 -17 vhcurveto
            -31 hlineto
            -31 -6 12 31 28 6 20 34 hvcurveto
            26 hlineto
            78 -2 -38 -116 55 hvcurveto
            -13 6 9 -6 10 hhcurveto
            4 4 1 2 5 hvcurveto
            44 17 rlineto
            11 4 4 7 9 vvcurveto
            4 -1 5 -2 5 vhcurveto
            return
          </CharString>
          <CharString index="286">
            -21 callgsubr
            -89 hlineto
            235 callgsubr
            -96 vlineto
            return
          </CharString>
          <CharString index="287">
            -7 -1 -7 -1 -7 vhcurveto
            -147 132 rlineto
            2 return
          </CharString>
          <CharString index="288">
            hlineto
            -24 -12 12 23 hvcurveto
            return
          </CharString>
          <CharString index="289">
            7 249 callgsubr
            return
          </CharString>
          <CharString index="290">
            -16 238 callsubr
            return
          </CharString>
          <CharString index="291">
            196 callsubr
            83 hlineto
            return
          </CharString>
          <CharString index="292">
            -94 -63 callgsubr
            return
          </CharString>
          <CharString index="293">
            519 rmoveto
            -105 callsubr
            return
          </CharString>
          <CharString index="294">
            5 8 7 292 callgsubr
            return
          </CharString>
          <CharString index="295">
            hlineto
            335 callsubr
            return
          </CharString>
          <CharString index="296">
            -11 25 vhcurveto
            114 -17 rlineto
            15 -2 6 10 14 vvcurveto
            70 vlineto
            14 -6 7 -15 -2 vhcurveto
            -117 -18 20 140 rlineto
            -3 callgsubr
            -85 hlineto
            -14 -10 -5 -16 3 hvcurveto
            19 -140 -111 18 rlineto
            -16 2 -5 -7 -14 vvcurveto
            -70 vlineto
            -14 5 -10 16 2 vhcurveto
            return
          </CharString>
          <CharString index="297">
            -80 -55 -40 -82 hvcurveto
            return
          </CharString>
          <CharString index="298">
            -77 callgsubr
            261 23 callgsubr
            return
          </CharString>
          <CharString index="299">
            vlineto
            48 24 23 49 vhcurveto
            11 25 callgsubr
            -31 hlineto
            return
          </CharString>
          <CharString index="300">
            hlineto
            15 7 8 15 hvcurveto
            return
          </CharString>
          <CharString index="301">
            16 1 8 7 17 vvcurveto
            return
          </CharString>
          <CharString index="302">
            331 callgsubr
            258 callgsubr
            7 152 callgsubr
            -7 5 -13 259 callgsubr
          </CharString>
          <CharString index="303">
            164 callsubr
            -98 54 -55 97 vhcurveto
            return
          </CharString>
          <CharString index="304">
            -6 -6 -14 hvcurveto
            return
          </CharString>
          <CharString index="305">
            574 rmoveto
            64 hlineto
            11 131 callsubr
            -4 hvcurveto
            -32 -66 -32 66 rlineto
            9 -4 -6 3 -8 286 callgsubr
            endchar
          </CharString>
          <CharString index="306">
            hlineto
            95 50 64 97 hvcurveto
            66 36 callgsubr
            return
          </CharString>
          <CharString index="307">
            208 callsubr
            69 vlineto
            14 return
          </CharString>
          <CharString index="308">
            -26 -25 -10 -14 -28 hvcurveto
            -94 6 callsubr
            -74 vlineto
            -87 51 -69 140 vhcurveto
            23 219 callsubr
            return
          </CharString>
          <CharString index="309">
            -21 -18 13 -34 24 hhcurveto
            25 hlineto
            36 9 -4 -20 hvcurveto
            -2 vlineto
            -18 -8 -5 -37 vhcurveto
            -33 hlineto
            -15 -3 -4 -15 hvcurveto
            -20 vlineto
            -14 return
          </CharString>
          <CharString index="310">
            -54 callgsubr
            82 -70 callgsubr
            -146 return
          </CharString>
          <CharString index="311">
            -73 callgsubr
            70 76 callsubr
            return
          </CharString>
          <CharString index="312">
            rmoveto
            -16 -8 -7 -16 hvcurveto
            -56 149 callgsubr
            return
          </CharString>
          <CharString index="313">
            14 vhcurveto
            89 276 callsubr
            return
          </CharString>
          <CharString index="314">
            vlineto
            366 callsubr
            return
          </CharString>
          <CharString index="315">
            16 411 callsubr
            return
          </CharString>
          <CharString index="316">
            -24 callgsubr
            -6 0 -6 return
          </CharString>
          <CharString index="317">
            692 rmoveto
            7 -5 -7 4 -11 hhcurveto
            -64 hlineto
            -11 -7 -4 -7 -5 hvcurveto
            -62 364 callgsubr
            457 callgsubr
            8 6 3 9 4 hvcurveto
            32 66 32 -66 rlineto
            -9 4 416 callsubr
          </CharString>
          <CharString index="318">
            816 80 callgsubr
            -81 440 callgsubr
            -72 194 callgsubr
            81 193 callsubr
            return
          </CharString>
          <CharString index="319">
            89 callgsubr
            13 328 callgsubr
            return
          </CharString>
          <CharString index="320">
            rmoveto
            -17 -16 -7 -55 callgsubr
            -17 16 -7 17 vhcurveto
            37 -97 callsubr
            return
          </CharString>
          <CharString index="321">
            148 callsubr
            17 vhcurveto
            70 hlineto
            14 258 callsubr
            5 vlineto
            56 16 18 49 return
          </CharString>
          <CharString index="322">
            vlineto
            -85 42 -33 93 vhcurveto
            return
          </CharString>
          <CharString index="323">
            hlineto
            -77 callgsubr
            return
          </CharString>
          <CharString index="324">
            hlineto
            222 callsubr
            return
          </CharString>
          <CharString index="325">
            -50 -21 -38 -78 -1 vhcurveto
            353 callsubr
            return
          </CharString>
          <CharString index="326">
            234 callsubr
            4 return
          </CharString>
          <CharString index="327">
            -51 113 callsubr
            return
          </CharString>
          <CharString index="328">
            -29 -16 -20 -26 hvcurveto
            return
          </CharString>
          <CharString index="329">
            -74 callsubr
            54 332 callsubr
            return
          </CharString>
          <CharString index="330">
            rmoveto
            78 39 45 84 hvcurveto
            7 270 callsubr
            return
          </CharString>
          <CharString index="331">
            -5 -6 -4 -6 -8 vvcurveto
            -8 6 -7 298 callsubr
            return
          </CharString>
          <CharString index="332">
            356 callsubr
            -8 hvcurveto
            return
          </CharString>
          <CharString index="333">
            7 -8 17 vhcurveto
            return
          </CharString>
          <CharString index="334">
            -12 -11 -12 -20 -46 hhcurveto
            161 callsubr
            -91 44 -65 100 vhcurveto
            return
          </CharString>
          <CharString index="335">
            hlineto
            -30 -1 -18 -12 -30 hhcurveto
            -28 353 callgsubr
            -17 313 callgsubr
            74 343 callgsubr
            53 401 callgsubr
            return
          </CharString>
          <CharString index="336">
            hlineto
            91 callgsubr
            200 56 379 callgsubr
            -215 vlineto
            324 callsubr
            -79 -32 38 64 hvcurveto
            17 197 callgsubr
            25 vlineto
            37 -18 22 -17 8 vhcurveto
            5 vlineto
            return
          </CharString>
          <CharString index="337">
            -39 -9 23 39 39 9 23 39 39 9 -23 -39 return
          </CharString>
          <CharString index="338">
            vlineto
            96 47 42 86 hvcurveto
            return
          </CharString>
          <CharString index="339">
            rlineto
            -76 callsubr
            -76 return
          </CharString>
          <CharString index="340">
            247 389 rmoveto
            -35 22 -15 22 37 vvcurveto
            42 17 12 31 31 18 -12 -42 -33 -5 -24 -37 -27 vhcurveto
            return
          </CharString>
          <CharString index="341">
            hlineto
            59 35 20 33 20 hvcurveto
            return
          </CharString>
          <CharString index="342">
            -46 -16 16 49 hvcurveto
            return
          </CharString>
          <CharString index="343">
            vlineto
            19 -8 10 return
          </CharString>
          <CharString index="344">
            hlineto
            -96 -54 -45 -87 hvcurveto
            -18 2 callgsubr
            -10 vlineto
            -102 54 -40 97 vhcurveto
            93 hlineto
            92 48 36 88 5 hvcurveto
            25 hlineto
            33 21 13 18 9 hvcurveto
            4 return
          </CharString>
          <CharString index="345">
            -5 -7 -14 hvcurveto
            return
          </CharString>
          <CharString index="346">
            hhcurveto
            -18 138 callgsubr
            92 1 callsubr
            return
          </CharString>
          <CharString index="347">
            461 callsubr
            41 428 callsubr
            7 hvcurveto
            71 96 rlineto
            14 10 return
          </CharString>
          <CharString index="348">
            -14 197 callsubr
            return
          </CharString>
          <CharString index="349">
            vlineto
            -108 64 return
          </CharString>
          <CharString index="350">
            -71 144 callgsubr
            hvcurveto
            -19 8 13 -15 24 hhcurveto
            49 hlineto
            15 7 10 13 5 -1 5 -1 5 hvcurveto
            -3 11 -4 12 16 vvcurveto
            34 21 3 33 vhcurveto
            59 344 callgsubr
            return
          </CharString>
          <CharString index="351">
            -91 callsubr
            -54 -19 callsubr
            -106 hlineto
            109 callgsubr
            return
          </CharString>
          <CharString index="352">
            14 7 5 16 291 callgsubr
            return
          </CharString>
          <CharString index="353">
            vlineto
            205 callgsubr
            return
          </CharString>
          <CharString index="354">
            1 4 1 7 rrcurveto
            8 1 4 4 8 hhcurveto
            return
          </CharString>
          <CharString index="355">
            7 5 16 hvcurveto
            127 vlineto
            105 return
          </CharString>
          <CharString index="356">
            -20 callgsubr
            363 callgsubr
            return
          </CharString>
          <CharString index="357">
            404 callsubr
            13 5 6 15 -8 hvcurveto
            endchar
          </CharString>
          <CharString index="358">
            hlineto
            80 50 49 80 hvcurveto
            return
          </CharString>
          <CharString index="359">
            hlineto
            -50 -22 22 47 hvcurveto
            return
          </CharString>
          <CharString index="360">
            -61 -110 hvcurveto
            return
          </CharString>
          <CharString index="361">
            -15 175 callgsubr
            303 -21 callgsubr
            -89 hlineto
            235 callgsubr
            return
          </CharString>
          <CharString index="362">
            -36 callgsubr
            -41 -126 376 callgsubr
            return
          </CharString>
          <CharString index="363">
            vvcurveto
            -38 callsubr
            return
          </CharString>
          <CharString index="364">
            -68 rlineto
            -27 -18 10 -28 38 hhcurveto
            32 65 14 32 17 -5 3 -16 hvcurveto
            -42 hlineto
            38 57 rlineto
            return
          </CharString>
          <CharString index="365">
            8 7 17 hvcurveto
            return
          </CharString>
          <CharString index="366">
            hlineto
            91 callgsubr
            -37 276 callgsubr
            45 -15 -57 33 -73 hhcurveto
            -63 -28 -23 -32 -14 hvcurveto
            -4 hlineto
            135 callgsubr
            return
          </CharString>
          <CharString index="367">
            rrcurveto
            -39 callgsubr
            return
          </CharString>
          <CharString index="368">
            122 callsubr
            -58 hlineto
            return
          </CharString>
          <CharString index="369">
            9 321 callsubr
            return
          </CharString>
          <CharString index="370">
            317 345 callgsubr
            return
          </CharString>
          <CharString index="371">
            323 callgsubr
            73 36 44 61 hvcurveto
            161 -81 callgsubr
            endchar
          </CharString>
          <CharString index="372">
            1 10 hhcurveto
            234 callgsubr
            return
          </CharString>
          <CharString index="373">
            -9 -11 9 hvcurveto
            81 -96 rlineto
            -8 return
          </CharString>
          <CharString index="374">
            10 -6 -6 2 -7 hhcurveto
            -7 -5 -4 -3 -5 hvcurveto
            -55 -34 -17 -14 -37 -1 rrcurveto
            -13 hlineto
            -39 -19 11 45 37 6 22 39 hvcurveto
            37 hlineto
            17 8 8 17 hvcurveto
            return
          </CharString>
          <CharString index="375">
            285 callgsubr
            -13 hhcurveto
            endchar
          </CharString>
          <CharString index="376">
            -24 callsubr
            233 289 callsubr
            return
          </CharString>
          <CharString index="377">
            vlineto
            22 -10 12 -19 vhcurveto
            -46 hlineto
            359 callsubr
            return
          </CharString>
          <CharString index="378">
            817 300 callgsubr
            -98 hlineto
            -14 338 callgsubr
          </CharString>
          <CharString index="379">
            -190 251 268 rmoveto
            16 392 callsubr
            59 vlineto
            15 386 callsubr
            -190 418 callgsubr
            endchar
          </CharString>
          <CharString index="380">
            -24 -15 -3 -41 32 hhcurveto
            27 63 12 31 2 hvcurveto
            4 13 return
          </CharString>
          <CharString index="381">
            vlineto
            48 20 20 49 vhcurveto
            return
          </CharString>
          <CharString index="382">
            vlineto
            17 -5 7 -18 vhcurveto
            return
          </CharString>
          <CharString index="383">
            hlineto
            13 295 callgsubr
            return
          </CharString>
          <CharString index="384">
            121 callsubr
            -45 vlineto
            -18 8 -6 14 vhcurveto
            64 hlineto
            14 8 6 18 hvcurveto
            31 vlineto
            16 11 14 25 22 15 -12 -18 vhcurveto
            return
          </CharString>
          <CharString index="385">
            rmoveto
            -12 -10 -5 -14 -8 hvcurveto
            -44 -89 rlineto
            -15 -7 4 397 callgsubr
            -5 9 -14 hhcurveto
            endchar
          </CharString>
          <CharString index="386">
            -298 166 401 callsubr
            return
          </CharString>
          <CharString index="387">
            -51 242 callsubr
            return
          </CharString>
          <CharString index="388">
            -13 18 51 hvcurveto
            return
          </CharString>
          <CharString index="389">
            0 -32 -16 -44 -41 vhcurveto
            -45 -41 -51 callsubr
            94 hlineto
            13 9 310 callsubr
            13 12 33 34 37 39 return
          </CharString>
          <CharString index="390">
            -4 -4 -9 hvcurveto
            -9 vlineto
            -31 -11 -12 -24 vhcurveto
            -7 hlineto
            -24 -11 11 32 hvcurveto
            9 vlineto
            9 -4 390 callgsubr
            endchar
          </CharString>
          <CharString index="391">
            -42 -13 12 31 hvcurveto
            11 vlineto
            25 16 13 20 vhcurveto
            14 293 callsubr
            16 hvcurveto
            53 -87 callgsubr
            -14 181 callsubr
            return
          </CharString>
          <CharString index="392">
            hlineto
            -27 -53 rlineto
            273 callsubr
            -6 5 -12 -1 rrcurveto
            -2 -37 -3 -7 -4 26 47 16 9 vhcurveto
            return
          </CharString>
          <CharString index="393">
            hlineto
            18 5 7 17 hvcurveto
            54 275 callsubr
            return
          </CharString>
          <CharString index="394">
            hlineto
            -4 callgsubr
            return
          </CharString>
          <CharString index="395">
            hlineto
            329 callgsubr
            8 vlineto
            21 6 11 24 vhcurveto
            return
          </CharString>
          <CharString index="396">
            vlineto
            17 -8 6 -16 vhcurveto
            -64 hlineto
            -16 -8 -7 -16 hvcurveto
            return
          </CharString>
          <CharString index="397">
            263 callgsubr
            70 hlineto
            return
          </CharString>
          <CharString index="398">
            -5 266 callsubr
            return
          </CharString>
          <CharString index="399">
            -116 -55 -65 -103 hvcurveto
            return
          </CharString>
          <CharString index="400">
            hlineto
            16 8 7 return
          </CharString>
          <CharString index="401">
            -4 hlineto
            39 -16 -54 15 -37 hhcurveto
            -24 188 callsubr
            -84 7 callgsubr
            80 hlineto
            374 callsubr
            146 vlineto
            return
          </CharString>
          <CharString index="402">
            hlineto
            -20 -16 13 25 hvcurveto
            7 vlineto
            25 16 13 20 vhcurveto
            66 293 callsubr
            16 -80 callsubr
            -66 hlineto
            -23 -13 return
          </CharString>
          <CharString index="403">
            6 callsubr
            -57 vlineto
            -16 7 -7 17 vhcurveto
            87 -4 hlineto
            404 callgsubr
            return
          </CharString>
          <CharString index="404">
            20 hvcurveto
            20 8 8 9 20 vvcurveto
            59 vlineto
            8 -6 5 -8 vhcurveto
            -18 -28 return
          </CharString>
          <CharString index="405">
            12 vhcurveto
            83 hlineto
            13 8 310 callsubr
            return
          </CharString>
          <CharString index="406">
            -21 vlineto
            -32 -18 -13 -31 vhcurveto
            return
          </CharString>
          <CharString index="407">
            14 -6 7 -15 vhcurveto
            return
          </CharString>
          <CharString index="408">
            rmoveto
            15 5 8 14 hvcurveto
            44 31 callsubr
            -198 hlineto
            -15 238 callsubr
            -44 vlineto
            -14 5 -8 15 vhcurveto
            endchar
          </CharString>
          <CharString index="409">
            191 callgsubr
            -70 6 callsubr
            return
          </CharString>
          <CharString index="410">
            -8 hvcurveto
            -44 -89 rlineto
            -15 return
          </CharString>
          <CharString index="411">
            hlineto
            22 12 5 22 hvcurveto
            return
          </CharString>
          <CharString index="412">
            rmoveto
            19 callgsubr
            return
          </CharString>
          <CharString index="413">
            rmoveto
            -55 -14 33 43 hvcurveto
            138 vlineto
            43 14 33 55 vhcurveto
            44 135 callsubr
            -172 193 callgsubr
            return
          </CharString>
          <CharString index="414">
            rmoveto
            120 callgsubr
            -39 293 callgsubr
            10 274 callsubr
            49 381 callgsubr
            -344 return
          </CharString>
          <CharString index="415">
            20 6 20 22 vvcurveto
            return
          </CharString>
          <CharString index="416">
            15 392 callsubr
            return
          </CharString>
          <CharString index="417">
            4 6 6 hvcurveto
            return
          </CharString>
          <CharString index="418">
            -38 callsubr
            -37 362 callgsubr
            return
          </CharString>
          <CharString index="419">
            188 callsubr
            -317 7 callgsubr
            endchar
          </CharString>
          <CharString index="420">
            623 343 callsubr
            return
          </CharString>
          <CharString index="421">
            -4 vlineto
            -28 -12 -29 -23 -77 vvcurveto
            return
          </CharString>
          <CharString index="422">
            308 callsubr
            endchar
          </CharString>
          <CharString index="423">
            rmoveto
            29 9 -11 -28 hvcurveto
            -87 vlineto
            -28 -9 -10 -29 vhcurveto
            -23 hlineto
            -30 -8 10 28 hvcurveto
            87 vlineto
            28 8 11 30 vhcurveto
            return
          </CharString>
          <CharString index="424">
            rmoveto
            -14 7 -7 13 vhcurveto
            79 hlineto
            14 6 152 callgsubr
            -7 5 -13 vhcurveto
            -79 hlineto
            -13 -7 -6 -14 hvcurveto
            return
          </CharString>
          <CharString index="425">
            378 callgsubr
            -58 hlineto
            -10 414 callsubr
            endchar
          </CharString>
          <CharString index="426">
            28 36 hvcurveto
            17 13 5 4 11 vvcurveto
            5 -3 5 -4 6 vhcurveto
            return
          </CharString>
          <CharString index="427">
            118 rmoveto
            -4 callgsubr
            return
          </CharString>
          <CharString index="428">
            187 callsubr
            -5 9 return
          </CharString>
          <CharString index="429">
            6 -7 14 vhcurveto
            87 hlineto
            14 6 7 return
          </CharString>
          <CharString index="430">
            15 5 182 callsubr
            -5 return
          </CharString>
          <CharString index="431">
            29 callgsubr
            -22 hlineto
            return
          </CharString>
          <CharString index="432">
            hlineto
            43 15 -17 -42 hvcurveto
            return
          </CharString>
          <CharString index="433">
            14 vhcurveto
            85 hlineto
            14 7 return
          </CharString>
          <CharString index="434">
            rmoveto
            281 callgsubr
            return
          </CharString>
          <CharString index="435">
            vlineto
            -16 226 callsubr
            return
          </CharString>
          <CharString index="436">
            -89 rlineto
            -15 -7 return
          </CharString>
          <CharString index="437">
            56 vlineto
            16 -8 return
          </CharString>
          <CharString index="438">
            -6 -7 -14 -6 hvcurveto
            -64 -165 -110 -271 -64 -165 rrcurveto
            -16 -6 7 -5 14 hhcurveto
            52 hlineto
            14 return
          </CharString>
          <CharString index="439">
            -97 callsubr
            426 callsubr
            return
          </CharString>
          <CharString index="440">
            rmoveto
            -71 callsubr
            return
          </CharString>
          <CharString index="441">
            -18 -5 -7 -17 hvcurveto
            return
          </CharString>
          <CharString index="442">
            -105 -60 -58 -105 hvcurveto
            return
          </CharString>
          <CharString index="443">
            679 rmoveto
            -69 38 -36 60 vhcurveto
            35 hlineto
            60 38 389 callsubr
            -49 hlineto
            return
          </CharString>
          <CharString index="444">
            rmoveto
            -79 -32 38 64 hvcurveto
            17 6 vlineto
            96 3 47 39 86 vvcurveto
            25 vlineto
            37 -18 22 -17 8 vhcurveto
            5 return
          </CharString>
          <CharString index="445">
            vlineto
            8 4 3 7 vhcurveto
            109 135 callsubr
            -305 193 callgsubr
            endchar
          </CharString>
          <CharString index="446">
            vlineto
            -114 57 -62 111 vhcurveto
            9 hlineto
            return
          </CharString>
          <CharString index="447">
            60 58 105 hvcurveto
            263 callsubr
            return
          </CharString>
          <CharString index="448">
            189 313 callsubr
            return
          </CharString>
          <CharString index="449">
            -9 -22 462 callgsubr
            return
          </CharString>
          <CharString index="450">
            rmoveto
            -24 callsubr
            return
          </CharString>
          <CharString index="451">
            6 7 -4 hvcurveto
            endchar
          </CharString>
          <CharString index="452">
            hlineto
            82 -12 -51 43 -73 hhcurveto
            394 callsubr
            return
          </CharString>
          <CharString index="453">
            30 355 callgsubr
            return
          </CharString>
          <CharString index="454">
            hlineto
            453 callsubr
            -58 382 callsubr
            return
          </CharString>
          <CharString index="455">
            hlineto
            -18 7 -6 17 vhcurveto
            59 hlineto
            17 7 6 18 hvcurveto
            return
          </CharString>
          <CharString index="456">
            315 callgsubr
            -10 hlineto
            61 -11 -39 return
          </CharString>
          <CharString index="457">
            vlineto
            9 -5 390 callgsubr
            return
          </CharString>
          <CharString index="458">
            vlineto
            123 callgsubr
            return
          </CharString>
          <CharString index="459">
            23 callgsubr
            7 hlineto
            43 21 -23 -40 hvcurveto
            return
          </CharString>
          <CharString index="460">
            -55 379 callsubr
            return
          </CharString>
          <CharString index="461">
            rmoveto
            22 18 -85 callgsubr
            hhcurveto
            11 4 -5 -31 hvcurveto
            -10 vlineto
            -9 2 -4 9 vhcurveto
            39 hlineto
            8 return
          </CharString>
          <CharString index="462">
            -6 13 hhcurveto
            64 hlineto
            11 399 callgsubr
          </CharString>
          <CharString index="463">
            hlineto
            8 4 -3 return
          </CharString>
          <CharString index="464">
            -70 hlineto
            -25 callsubr
            56 -104 callsubr
            return
          </CharString>
          <CharString index="465">
            hvcurveto
            -33 -66 -32 378 callgsubr
            return
          </CharString>
          <CharString index="466">
            -16 -13 342 callsubr
            -9 -11 -26 vhcurveto
            return
          </CharString>
          <CharString index="467">
            334 callsubr
            -56 vlineto
            -16 5 -7 18 vhcurveto
            return
          </CharString>
          <CharString index="468">
            hvcurveto
            161 -104 callsubr
            return
          </CharString>
          <CharString index="469">
            -37 -28 -19 -45 -60 vvcurveto
            return
          </CharString>
          <CharString index="470">
            vlineto
            -52 -30 -64 -87 vhcurveto
            return
          </CharString>
          <CharString index="471">
            -5 -8 1 9 -1 hvcurveto
            return
          </CharString>
          <CharString index="472">
            rmoveto
            221 callsubr
            return
          </CharString>
          <CharString index="473">
            -9 -5 -5 -7 vhcurveto
            return
          </CharString>
          <CharString index="474">
            rmoveto
            87 callsubr
            121 vlineto
            153 -163 rlineto
            -15 -11 -19 -9 -30 hhcurveto
            return
          </CharString>
          <CharString index="475">
            5 callgsubr
            85 105 callsubr
            return
          </CharString>
          <CharString index="476">
            188 callgsubr
            endchar
          </CharString>
          <CharString index="477">
            hvcurveto
            68 vlineto
            14 return
          </CharString>
          <CharString index="478">
            169 callgsubr
            6 0 5 1 5 vhcurveto
            149 -133 rlineto
            -3 return
          </CharString>
          <CharString index="479">
            367 callgsubr
            -61 vlineto
            262 callgsubr
            return
          </CharString>
          <CharString index="480">
            453 callgsubr
            68 rlineto
            return
          </CharString>
          <CharString index="481">
            104 60 58 105 hvcurveto
            return
          </CharString>
          <CharString index="482">
            221 398 callsubr
            return
          </CharString>
          <CharString index="483">
            hvcurveto
            -122 vlineto
            -14 6 -7 206 callsubr
            endchar
          </CharString>
          <CharString index="484">
            623 365 callsubr
            return
          </CharString>
          <CharString index="485">
            -17 callsubr
            84 hlineto
            return
          </CharString>
          <CharString index="486">
            hlineto
            -42 -13 13 45 hvcurveto
            return
          </CharString>
          <CharString index="487">
            hlineto
            -24 -15 10 22 hvcurveto
            return
          </CharString>
          <CharString index="488">
            vlineto
            20 13 15 22 vhcurveto
            return
          </CharString>
          <CharString index="489">
            vlineto
            410 callgsubr
            return
          </CharString>
          <CharString index="490">
            vlineto
            281 callgsubr
            return
          </CharString>
          <CharString index="491">
            hlineto
            -16 -5 -7 -15 hvcurveto
            return
          </CharString>
          <CharString index="492">
            345 callgsubr
            -104 vhcurveto
            return
          </CharString>
          <CharString index="493">
            -5 7 -16 vhcurveto
            return
          </CharString>
          <CharString index="494">
            -16 -8 -7 -16 hvcurveto
            -58 vlineto
            -95 callgsubr
            275 hlineto
            8 4 return
          </CharString>
          <CharString index="495">
            vlineto
            28 9 15 31 31 9 -16 -28 vhcurveto
            -90 183 callgsubr
            return
          </CharString>
          <CharString index="496">
            36 69 hvcurveto
            11 vlineto
            9 -5 4 -9 vhcurveto
            return
          </CharString>
          <CharString index="497">
            475 rmoveto
            450 callsubr
            return
          </CharString>
          <CharString index="498">
            -32 3 -35 17 -20 return
          </CharString>
          <CharString index="499">
            5 7 14 hvcurveto
            return
          </CharString>
          <CharString index="500">
            440 callsubr
            108 108 callsubr
            return
          </CharString>
          <CharString index="501">
            -7 427 callsubr
            82 1 callsubr
            return
          </CharString>
          <CharString index="502">
            428 callsubr
            6 hvcurveto
            72 96 rlineto
            14 9 -6 6 -13 hhcurveto
            return
          </CharString>
          <CharString index="503">
            -12 13 -9 -1 -12 -12 rlinecurve
            -42 -43 -12 -11 -1 -9 12 -13 rlinecurve
            return
          </CharString>
          <CharString index="504">
            362 callgsubr
            35 323 callgsubr
            return
          </CharString>
          <CharString index="505">
            340 callgsubr
            8 1 8 1 7 vhcurveto
            return
          </CharString>
          <CharString index="506">
            415 callsubr
            endchar
          </CharString>
          <CharString index="507">
            4 6 5 vhcurveto
            return
          </CharString>
          <CharString index="508">
            144 rmoveto
            180 callgsubr
            return
          </CharString>
          <CharString index="509">
            33 11 27 30 57 vvcurveto
            40 vlineto
            31 -14 21 -17 9 vhcurveto
            4 return
          </CharString>
          <CharString index="510">
            228 -61 callsubr
            return
          </CharString>
          <CharString index="511">
            266 callsubr
            7 439 callgsubr
            return
          </CharString>
          <CharString index="512">
            vlineto
            14 -7 5 449 callgsubr
          </CharString>
          <CharString index="513">
            445 callsubr
            34 14 24 32 hvcurveto
            return
          </CharString>
          <CharString index="514">
            -2 2 -9 vhcurveto
            -39 hlineto
            -8 return
          </CharString>
          <CharString index="515">
            vlineto
            14 -6 8 -15 vhcurveto
            return
          </CharString>
          <CharString index="516">
            331 callgsubr
            14 vhcurveto
            return
          </CharString>
          <CharString index="517">
            15 295 callgsubr
            return
          </CharString>
          <CharString index="518">
            5 5 15 hvcurveto
            return
          </CharString>
          <CharString index="519">
            -91 callsubr
            -28 -19 callsubr
            return
          </CharString>
          <CharString index="520">
            hlineto
            -103 -60 -58 -103 hvcurveto
            -321 vlineto
            -103 60 -58 103 vhcurveto
            return
          </CharString>
          <CharString index="521">
            -3 -6 -7 4 hvcurveto
            63 -105 rlineto
            -7 5 6 -4 11 hhcurveto
            return
          </CharString>
          <CharString index="522">
            hlineto
            15 7 5 16 hvcurveto
            468 158 callsubr
            return
          </CharString>
          <CharString index="523">
            6 -3 8 449 callsubr
          </CharString>
          <CharString index="524">
            334 callsubr
            -38 vlineto
            -16 5 -7 18 vhcurveto
            44 return
          </CharString>
          <CharString index="525">
            hlineto
            208 callsubr
            52 327 callgsubr
            return
          </CharString>
          <CharString index="526">
            hlineto
            438 callgsubr
            return
          </CharString>
          <CharString index="527">
            vvcurveto
            -88 69 -51 98 vhcurveto
            66 hlineto
            99 59 65 104 hvcurveto
            return
          </CharString>
          <CharString index="528">
            380 callsubr
            9 381 callsubr
            return
          </CharString>
          <CharString index="529">
            hlineto
            445 callsubr
            hvcurveto
            37 vlineto
            33 13 19 43 vhcurveto
            return
          </CharString>
          <CharString index="530">
            rmoveto
            453 callsubr
            -58 382 callsubr
            return
          </CharString>
          <CharString index="531">
            hlineto
            -22 callsubr
            138 return
          </CharString>
          <CharString index="532">
            -17 callsubr
            117 return
          </CharString>
          <CharString index="533">
            -482 vlineto
            -95 callgsubr
            return
          </CharString>
          <CharString index="534">
            hlineto
            -45 -26 callgsubr
            return
          </CharString>
          <CharString index="535">
            hlineto
            10 9 5 8 return
          </CharString>
          <CharString index="536">
            -7 6 -14 vhcurveto
            return
          </CharString>
          <CharString index="537">
            hhcurveto
            -59 hlineto
            -9 return
          </CharString>
          <CharString index="538">
            386 callgsubr
            -4 hlineto
            37 callsubr
            return
          </CharString>
          <CharString index="539">
            -17 -6 -7 -17 hvcurveto
            -38 vlineto
            -16 6 -7 17 vhcurveto
            return
          </CharString>
          <CharString index="540">
            222 340 callgsubr
            return
          </CharString>
          <CharString index="541">
            19 -10 9 -18 vhcurveto
            -68 hlineto
            -19 -9 -9 -19 hvcurveto
            return
          </CharString>
          <CharString index="542">
            rmoveto
            -13 -10 -4 -15 139 callgsubr
            return
          </CharString>
          <CharString index="543">
            15 7 7 14 hvcurveto
            69 vlineto
            13 -7 7 -15 vhcurveto
            return
          </CharString>
          <CharString index="544">
            vlineto
            63 -36 36 -49 7 vhcurveto
            4 vlineto
            27 8 8 return
          </CharString>
          <CharString index="545">
            5 -12 115 callgsubr
            endchar
          </CharString>
          <CharString index="546">
            vlineto
            42 16 16 42 vhcurveto
            return
          </CharString>
          <CharString index="547">
            vlineto
            -24 callsubr
            return
          </CharString>
          <CharString index="548">
            vlineto
            -14 5 -53 callsubr
            return
          </CharString>
          <CharString index="549">
            hlineto
            410 callsubr
            return
          </CharString>
          <CharString index="550">
            rmoveto
            189 callgsubr
            return
          </CharString>
          <CharString index="551">
            hlineto
            309 callsubr
            return
          </CharString>
          <CharString index="552">
            -54 -19 17 35 return
          </CharString>
          <CharString index="553">
            336 callgsubr
            8 7 4 6 4 vhcurveto
            return
          </CharString>
          <CharString index="554">
            hhcurveto
            11 hlineto
            49 6 -33 -38 hvcurveto
            -118 vlineto
            return
          </CharString>
          <CharString index="555">
            rmoveto
            -12 -10 427 callgsubr
            return
          </CharString>
          <CharString index="556">
            hhcurveto
            60 hlineto
            9 2 344 callsubr
          </CharString>
          <CharString index="557">
            -8 -4 -5 -7 vhcurveto
            -97 hlineto
            return
          </CharString>
          <CharString index="558">
            18 vhcurveto
            379 hlineto
            18 5 return
          </CharString>
          <CharString index="559">
            -40 16 -36 56 23 return
          </CharString>
          <CharString index="560">
            -16 -8 -8 -15 hvcurveto
            return
          </CharString>
          <CharString index="561">
            -43 -15 17 42 hvcurveto
            return
          </CharString>
          <CharString index="562">
            -3 -9 -4 hvcurveto
            return
          </CharString>
          <CharString index="563">
            hlineto
            -43 -16 17 return
          </CharString>
          <CharString index="564">
            25 26 -18 19 -26 -25 -19 -19 -26 vhcurveto
            return
          </CharString>
          <CharString index="565">
            hhcurveto
            -7 427 callsubr
            return
          </CharString>
          <CharString index="566">
            29 118 rlineto
            16 4 -7 6 -15 hhcurveto
            return
          </CharString>
          <CharString index="567">
            -91 callsubr
            -194 vlineto
            return
          </CharString>
          <CharString index="568">
            5 -6 13 hhcurveto
            return
          </CharString>
          <CharString index="569">
            vlineto
            -15 8 -5 return
          </CharString>
          <CharString index="570">
            9 -13 hhcurveto
            endchar
          </CharString>
        <CharString name=".notdef">
          254 160 hmoveto
          436 701 -436 hlineto
          81 -76 rmoveto
          275 -549 -275 hlineto
          endchar
        </CharString>
        <CharString name="A">
          55 -65 callgsubr
          endchar
        </CharString>
        <CharString name="AE">
          279 364 522 rmoveto
          4 -279 -131 hlineto
          -125 -243 rmoveto
          134 callgsubr
          6 hvcurveto
          51 111 rlineto
          178 -111 hlineto
          -18 callsubr
          327 hlineto
          -45 callgsubr
          209 108 callgsubr
          -399 hlineto
          -17 -8 -5 -16 -8 hvcurveto
          -277 -600 rlineto
          -14 -6 4 -8 15 hhcurveto
          endchar
        </CharString>
        <CharString name="Aacute">
          54 -65 callgsubr
          271 836 rmoveto
          -12 84 callsubr
          4 -6 13 hhcurveto
          66 hlineto
          10 262 callsubr
          -14 hhcurveto
          endchar
        </CharString>
        <CharString name="Abreve">
          54 -65 callgsubr
          127 823 rmoveto
          -11 vlineto
          -69 38 -36 60 vhcurveto
          35 hlineto
          59 39 389 callsubr
          -50 hlineto
          -9 283 callsubr
        </CharString>
        <CharString name="Acircumflex">
          54 -65 callgsubr
          297 825 244 callgsubr
          60 hlineto
          9 2 6 7 -4 hvcurveto
          endchar
        </CharString>
        <CharString name="Adieresis">
          54 -65 callgsubr
          278 728 -5 callgsubr
        </CharString>
        <CharString name="Agrave">
          54 -65 callgsubr
          238 271 callsubr
        </CharString>
        <CharString name="Amacron">
          54 -65 callgsubr
          341 732 140 callgsubr
        </CharString>
        <CharString name="Aogonek">
          54 205 233 rmoveto
          72 289 rlineto
          4 hlineto
          72 -289 rlineto
          22 389 rmoveto
          16 -4 -10 5 -16 hhcurveto
          -133 hlineto
          -16 -9 -5 -16 -5 hvcurveto
          -158 -601 rlineto
          -15 -4 2 -6 14 hhcurveto
          96 hlineto
          14 4 5 16 3 hvcurveto
          28 110 rlineto
          195 hlineto
          28 -110 rlineto
          -2 vlineto
          -53 -87 rlineto
          -27 -17 10 -28 38 hhcurveto
          32 65 14 32 17 -5 3 -17 hvcurveto
          -41 hlineto
          37 57 rlineto
          68 hlineto
          14 2 6 15 -4 hvcurveto
          endchar
        </CharString>
        <CharString name="Aring">
          54 -65 callgsubr
          233 750 rmoveto
          -17 -6 6 19 hvcurveto
          26 vlineto
          20 7 283 callgsubr
          -35 -19 -19 -33 hvcurveto
          -64 vlineto
          -35 19 -19 35 vhcurveto
          endchar
        </CharString>
        <CharString name="Atilde">
          54 -65 callgsubr
          258 738 rmoveto
          22 18 3 5 8 hhcurveto
          12 4 -5 -31 hvcurveto
          -10 vlineto
          -9 2 -4 8 vhcurveto
          40 hlineto
          8 2 4 9 hvcurveto
          37 vlineto
          40 -16 37 -56 -23 -17 -7 -25 -20 vhcurveto
          -26 -20 361 callgsubr
          12 vlineto
          9 -3 2 -8 vhcurveto
          -39 hlineto
          -9 -2 -2 -9 hvcurveto
          -39 vlineto
          452 callsubr
          18 6 30 22 vhcurveto
          endchar
        </CharString>
        <CharString name="B">
          53 65 407 callgsubr
          250 hlineto
          104 60 57 105 hvcurveto
          60 vlineto
          68 -38 33 -50 7 vhcurveto
          50 16 29 38 56 vvcurveto
          41 vlineto
          105 -60 57 -105 vhcurveto
          -240 424 callsubr
          -240 rmoveto
          -7 -4 3 8 hvcurveto
          133 vlineto
          8 4 3 7 vhcurveto
          103 hlineto
          42 19 -16 -42 hvcurveto
          -39 vlineto
          -41 -19 -17 -43 vhcurveto
          -102 -276 rmoveto
          -7 -4 3 8 hvcurveto
          151 vlineto
          8 4 3 7 vhcurveto
          110 hlineto
          45 19 -16 -41 hvcurveto
          -58 vlineto
          -42 -19 -16 -43 vhcurveto
          endchar
        </CharString>
        <CharString name="C">
          36 329 hmoveto
          46 callsubr
        </CharString>
        <CharString name="CR">
          -282 endchar
        </CharString>
        <CharString name="Cacute">
          36 290 277 callgsubr
          -60 -836 rmoveto
          46 callsubr
        </CharString>
        <CharString name="Ccaron">
          36 310 707 rmoveto
          11 131 callsubr
          -4 hvcurveto
          -32 -66 -33 66 rlineto
          9 -3 -6 3 -8 286 callgsubr
          83 -707 rmoveto
          46 callsubr
        </CharString>
        <CharString name="Ccedilla">
          36 472 411 rmoveto
          15 7 7 15 hvcurveto
          47 vlineto
          105 -61 58 -104 vhcurveto
          -109 188 callsubr
          -317 7 callgsubr
          32 hlineto
          -40 -47 rlineto
          -21 -19 13 -34 24 hhcurveto
          26 hlineto
          36 9 -4 -20 hvcurveto
          -3 vlineto
          -17 -9 -5 -36 vhcurveto
          -34 hlineto
          -14 -4 -4 -16 hvcurveto
          -19 vlineto
          -14 3 -5 15 vhcurveto
          46 hlineto
          54 40 21 50 hvcurveto
          18 vlineto
          55 -30 20 -44 vhcurveto
          4 vlineto
          40 41 rlineto
          1 hlineto
          309 callgsubr
          47 vlineto
          15 -7 7 -15 vhcurveto
          -84 hlineto
          -14 -7 -7 -15 hvcurveto
          -41 193 callgsubr
          -68 117 callgsubr
          305 vlineto
          42 16 17 42 vhcurveto
          68 135 callsubr
          -41 442 callgsubr
          endchar
        </CharString>
        <CharString name="D">
          176 callgsubr
          endchar
        </CharString>
        <CharString name="Dcaron">
          176 callgsubr
          -69 597 rmoveto
          65 hlineto
          10 7 4 7 5 hvcurveto
          62 105 rlineto
          7 4 -1 6 -10 430 callsubr
          -5 -3 -9 -4 hvcurveto
          -33 -66 -32 318 callsubr
        </CharString>
        <CharString name="Dcroat">
          64 347 333 callgsubr
          -247 hlineto
          -22 callsubr
          -208 vlineto
          -9 -3 -3 -8 vhcurveto
          -26 124 callsubr
          -52 vlineto
          -15 4 -5 17 vhcurveto
          26 hlineto
          8 3 -3 -8 hvcurveto
          -277 396 callgsubr
          177 vlineto
          8 4 3 7 vhcurveto
          76 418 callsubr
          -76 hlineto
          -7 -4 3 9 hvcurveto
          108 338 callsubr
        </CharString>
        <CharString name="E">
          -23 -69 callgsubr
          endchar
        </CharString>
        <CharString name="Eacute">
          -23 -69 callgsubr
          182 836 278 callsubr
        </CharString>
        <CharString name="Ecaron">
          -23 -69 callgsubr
          137 707 60 callgsubr
          -4 -5 3 -9 hhcurveto
          -58 132 callgsubr
        </CharString>
        <CharString name="Ecircumflex">
          -23 -69 callgsubr
          217 825 44 callsubr
          10 1 344 callsubr
        </CharString>
        <CharString name="Edieresis">
          -23 -69 callgsubr
          199 728 195 callgsubr
        </CharString>
        <CharString name="Edotaccent">
          -20 -69 callgsubr
          100 729 409 callsubr
          88 276 callsubr
          95 vlineto
          14 -7 5 -12 vhcurveto
          -88 369 callsubr
        </CharString>
        <CharString name="Egrave">
          -23 -69 callgsubr
          159 271 callsubr
        </CharString>
        <CharString name="Emacron">
          -23 -69 callgsubr
          262 732 140 callgsubr
        </CharString>
        <CharString name="Eogonek">
          -23 413 533 rmoveto
          30 callsubr
          -327 96 callgsubr
          227 hlineto
          -42 257 callsubr
          40 hlineto
          -45 callgsubr
          endchar
        </CharString>
        <CharString name="Eth">
          64 347 333 callgsubr
          -247 hlineto
          -22 callsubr
          -242 vlineto
          -8 -3 -3 -8 vhcurveto
          -26 124 callsubr
          -52 vlineto
          -15 4 -6 17 vhcurveto
          26 hlineto
          8 3 -3 -8 hvcurveto
          -243 396 callgsubr
          143 vlineto
          8 4 3 7 vhcurveto
          76 hlineto
          16 5 6 15 hvcurveto
          52 327 callgsubr
          -76 hlineto
          -7 -4 3 8 hvcurveto
          142 338 callsubr
        </CharString>
        <CharString name="Euro">
          45 320 hmoveto
          104 61 57 105 hvcurveto
          20 vlineto
          15 429 callsubr
          -85 hlineto
          -14 -7 -6 -15 hvcurveto
          -18 305 callgsubr
          -23 hlineto
          -43 -19 16 42 hvcurveto
          46 92 vlineto
          18 5 -49 callgsubr
          38 275 callsubr
          -92 44 92 hlineto
          18 5 7 16 hvcurveto
          38 275 callsubr
          -92 54 hlineto
          42 19 16 43 vhcurveto
          23 hlineto
          43 16 -16 -42 hvcurveto
          -18 vlineto
          -15 7 -6 14 vhcurveto
          85 441 callgsubr
          20 382 callgsubr
          -65 hlineto
          -104 -61 -57 -105 hvcurveto
          -56 317 callgsubr
          -8 18 vhcurveto
          44 -48 hlineto
          -105 61 -57 104 vhcurveto
          endchar
        </CharString>
        <CharString name="F">
          -52 171 114 callgsubr
          213 32 callgsubr
          171 hlineto
          15 6 7 15 hvcurveto
          67 327 callgsubr
          -171 hlineto
          -8 -4 3 9 hvcurveto
          155 32 callgsubr
          201 108 callgsubr
          -319 96 callgsubr
          endchar
        </CharString>
        <CharString name="G">
          27 callgsubr
          endchar
        </CharString>
        <CharString name="Gbreve">
          27 callgsubr
          -63 823 rmoveto
          -11 vlineto
          -69 39 -36 59 vhcurveto
          35 hlineto
          60 38 36 69 hvcurveto
          11 vlineto
          9 -4 4 -10 vhcurveto
          -49 hlineto
          -9 -5 -4 -9 hvcurveto
          -9 vlineto
          -31 -10 -12 -24 vhcurveto
          -8 hlineto
          -24 -10 11 32 hvcurveto
          9 350 callsubr
          endchar
        </CharString>
        <CharString name="H">
          74 171 114 callgsubr
          234 32 callgsubr
          169 hlineto
          7 4 -3 -8 hvcurveto
          -234 vlineto
          -16 7 -5 14 vhcurveto
          85 200 callgsubr
          -85 hlineto
          -14 -7 -5 -16 hvcurveto
          -235 vlineto
          -8 -4 -3 -7 vhcurveto
          -169 hlineto
          -8 -4 3 8 hvcurveto
          235 99 callsubr
          endchar
        </CharString>
        <CharString name="I">
          -235 197 622 57 callsubr
          endchar
        </CharString>
        <CharString name="Iacute">
          -235 197 622 57 callsubr
          -33 815 278 callsubr
        </CharString>
        <CharString name="Icircumflex">
          -237 197 622 57 callsubr
          -10 804 rmoveto
          7 -5 -7 4 -10 174 callgsubr
          10 hhcurveto
          58 hlineto
          463 callgsubr
          4 hvcurveto
          32 66 33 -66 rlineto
          -9 4 5 452 callgsubr
          10 1 344 callsubr
        </CharString>
        <CharString name="Idieresis">
          -236 197 622 57 callsubr
          -28 707 195 callsubr
        </CharString>
        <CharString name="Idotaccent">
          -235 70 724 rmoveto
          -14 322 callsubr
          14 hvcurveto
          87 vlineto
          14 -7 5 -13 vhcurveto
          -87 188 callgsubr
          127 -188 57 callsubr
          endchar
        </CharString>
        <CharString name="Igrave">
          -235 197 622 57 callsubr
          -65 796 179 callgsubr
          65 hlineto
          14 334 callgsubr
        </CharString>
        <CharString name="Imacron">
          -236 197 622 57 callsubr
          35 711 rmoveto
          410 callsubr
          45 327 callgsubr
          -197 124 callsubr
          -45 383 callsubr
          endchar
        </CharString>
        <CharString name="Iogonek">
          -235 176 hmoveto
          14 7 5 16 hvcurveto
          601 99 callsubr
          18 hlineto
          -41 257 callsubr
          endchar
        </CharString>
        <CharString name="J">
          19 356 643 rmoveto
          -15 -7 -5 -16 hvcurveto
          -453 384 callgsubr
          -59 117 callgsubr
          88 vlineto
          15 429 callsubr
          -85 hlineto
          -14 -7 -6 -15 hvcurveto
          -94 7 callgsubr
          100 hlineto
          374 callsubr
          460 vlineto
          15 -7 5 -14 vhcurveto
          endchar
        </CharString>
        <CharString name="K">
          126 callsubr
          endchar
        </CharString>
        <CharString name="L">
          69 callsubr
          endchar
        </CharString>
        <CharString name="Lacute">
          69 callsubr
          75 836 116 callgsubr
        </CharString>
        <CharString name="Lcaron">
          69 callsubr
          309 624 rmoveto
          14 -8 346 callgsubr
          53 101 rlineto
          12 25 11 20 34 vvcurveto
          endchar
        </CharString>
        <CharString name="Lslash">
          15 451 299 callgsubr
          8 -15 vhcurveto
          -211 hlineto
          -8 -4 3 8 hvcurveto
          232 vlineto
          82 46 rlineto
          13 7 7 10 15 vvcurveto
          67 vlineto
          13 -9 4 -11 -5 vhcurveto
          -82 -46 rlineto
          157 -47 callgsubr
          -230 vlineto
          -63 -35 rlineto
          -14 -8 -6 -10 -13 vvcurveto
          -65 vlineto
          -13 9 -5 11 5 vhcurveto
          63 36 rlineto
          -263 -17 callsubr
          endchar
        </CharString>
        <CharString name="M">
          224 366 276 rmoveto
          -6 hlineto
          -106 353 rlineto
          9 -3 -5 5 -11 hhcurveto
          -149 hlineto
          -11 -10 -5 -16 hvcurveto
          -601 vlineto
          -17 10 -4 11 vhcurveto
          82 hlineto
          17 4 5 16 hvcurveto
          475 4 vlineto
          104 -336 rlineto
          -14 4 6 -6 15 hhcurveto
          84 hlineto
          14 7 7 13 4 hvcurveto
          102 335 rlineto
          4 -474 hlineto
          -18 callsubr
          82 200 callgsubr
          -148 hlineto
          -12 -5 -5 -9 -2 hvcurveto
          endchar
        </CharString>
        <CharString name="N">
          16 callsubr
          endchar
        </CharString>
        <CharString name="NULL">
          -502 endchar
        </CharString>
        <CharString name="Nacute">
          16 callsubr
          233 836 296 callgsubr
          -14 hhcurveto
          endchar
        </CharString>
        <CharString name="Ncaron">
          83 269 707 rmoveto
          65 hlineto
          141 callgsubr
          63 -105 rlineto
          -7 5 6 -4 11 hhcurveto
          -100 -707 rmoveto
          24 callsubr
          endchar
        </CharString>
        <CharString name="Ntilde">
          16 callsubr
          222 738 354 callsubr
          3 4 9 hvcurveto
          37 vlineto
          40 -16 37 -56 -24 -17 -7 273 callgsubr
          12 vlineto
          9 407 callsubr
          -2 -2 -9 hvcurveto
          -39 vlineto
          -40 16 -36 55 23 19 6 30 21 vhcurveto
          endchar
        </CharString>
        <CharString name="O">
          -42 callsubr
          endchar
        </CharString>
        <CharString name="OE">
          279 249 395 callgsubr
          106 225 callsubr
          -401 vlineto
          -8 -4 -3 -8 vhcurveto
          -292 53 rmoveto
          36 callsubr
          477 hlineto
          15 6 7 14 hvcurveto
          68 327 callgsubr
          -201 hlineto
          -7 -4 3 8 hvcurveto
          139 vlineto
          8 4 3 7 vhcurveto
          164 108 callgsubr
          -164 hlineto
          -7 -4 3 8 hvcurveto
          130 vlineto
          8 4 3 7 vhcurveto
          201 hlineto
          15 6 7 14 hvcurveto
          68 327 callgsubr
          -477 188 callsubr
          endchar
        </CharString>
        <CharString name="Oacute">
          -42 callsubr
          -13 726 296 callgsubr
          -13 hhcurveto
          endchar
        </CharString>
        <CharString name="Ocircumflex">
          -42 callsubr
          23 715 44 callsubr
          10 1 344 callsubr
        </CharString>
        <CharString name="Odieresis">
          -42 callsubr
          1 618 -5 callgsubr
        </CharString>
        <CharString name="Ograve">
          -42 callsubr
          -38 707 179 callgsubr
          66 hlineto
          13 4 6 15 -7 hvcurveto
          endchar
        </CharString>
        <CharString name="Ohungarumlaut">
          -42 callsubr
          78 726 rmoveto
          -13 -10 -4 -15 -7 hvcurveto
          -44 -89 rlineto
          -15 -8 240 callsubr
          -6 6 -14 hhcurveto
          -217 hmoveto
          -12 -10 -4 -15 322 callgsubr
          42 395 callsubr
          endchar
        </CharString>
        <CharString name="Omacron">
          -42 callsubr
          64 622 140 callgsubr
        </CharString>
        <CharString name="Oslash">
          78 388 169 rmoveto
          391 callgsubr
          -80 hlineto
          -27 -16 7 15 -8 hvcurveto
          189 265 rlineto
          -196 77 rmoveto
          42 15 17 43 vhcurveto
          80 hlineto
          28 16 -7 -16 8 hvcurveto
          -190 -267 rlineto
          312 400 rmoveto
          -12 8 -10 -1 -9 -12 -17 -24 rcurveline
          19 -27 -35 10 -43 hhcurveto
          -121 188 callsubr
          -317 vlineto
          -30 5 -26 9 -22 vhcurveto
          -28 -40 -9 -13 3 -9 11 -8 rlinecurve
          21 -16 12 -7 10 0 9 12 rlinecurve
          17 24 rlineto
          -18 27 35 -10 43 hhcurveto
          121 hlineto
          374 callsubr
          317 vlineto
          29 -5 26 -9 21 vhcurveto
          30 42 8 13 -2 9 -12 8 rlinecurve
          endchar
        </CharString>
        <CharString name="Otilde">
          -42 callsubr
          -20 628 354 callsubr
          2 4 9 hvcurveto
          37 vlineto
          40 -16 37 -55 -24 -17 -7 273 callgsubr
          12 vlineto
          9 407 callsubr
          -3 -2 -9 hvcurveto
          -39 vlineto
          452 callsubr
          19 6 30 21 vhcurveto
          endchar
        </CharString>
        <CharString name="P">
          28 203 332 rmoveto
          -7 -4 3 8 hvcurveto
          179 vlineto
          8 4 3 7 vhcurveto
          106 325 callsubr
          -84 vlineto
          -41 431 callgsubr
          -138 -332 305 callsubr
          189 32 callgsubr
          126 hlineto
          374 callsubr
          96 385 callsubr
          -244 96 callgsubr
          endchar
        </CharString>
        <CharString name="Q">
          67 432 -133 rmoveto
          14 10 10 16 -8 hvcurveto
          -64 111 rlineto
          77 14 44 56 89 vvcurveto
          263 callsubr
          -105 vhcurveto
          -112 188 callsubr
          -317 7 callgsubr
          27 hlineto
          65 -112 rlineto
          -14 8 8 -7 23 hhcurveto
          -110 243 rmoveto
          454 callsubr
          305 vlineto
          42 15 17 43 vhcurveto
          71 135 callsubr
          -305 193 callgsubr
          endchar
        </CharString>
        <CharString name="R">
          45 203 -34 callgsubr
          endchar
        </CharString>
        <CharString name="Racute">
          45 203 -34 callgsubr
          200 836 116 callgsubr
        </CharString>
        <CharString name="Rcaron">
          45 203 -34 callgsubr
          145 707 rmoveto
          65 hlineto
          11 7 4 7 5 hvcurveto
          62 105 rlineto
          7 4 -2 6 -9 hhcurveto
          -60 hlineto
          -9 -5 455 callsubr
          -32 -66 -33 66 rlineto
          9 -3 -6 3 -8 hhcurveto
          -59 132 callgsubr
        </CharString>
        <CharString name="S">
          37 49 164 -16 callgsubr
        </CharString>
        <CharString name="Sacute">
          37 282 277 callgsubr
          -332 -672 -16 callgsubr
        </CharString>
        <CharString name="Scaron">
          37 295 707 rmoveto
          141 callgsubr
          62 -105 rlineto
          -7 5 7 -4 11 hhcurveto
          -181 -543 -16 callgsubr
        </CharString>
        <CharString name="T">
          39 callsubr
          endchar
        </CharString>
        <CharString name="Tcaron">
          39 callsubr
          11 707 60 callgsubr
          -4 -5 3 -9 hhcurveto
          -58 hlineto
          -10 414 callsubr
          endchar
        </CharString>
        <CharString name="Thorn">
          2 185 114 callgsubr
          99 32 callgsubr
          83 hlineto
          309 callgsubr
          53 vlineto
          105 -61 58 -104 vhcurveto
          -83 hlineto
          -8 -4 3 8 hvcurveto
          101 99 callsubr
          117 242 rmoveto
          -7 -4 3 8 hvcurveto
          136 vlineto
          8 4 3 7 vhcurveto
          63 325 callsubr
          -41 vlineto
          -42 -15 -16 -43 vhcurveto
          endchar
        </CharString>
        <CharString name="U">
          -41 callgsubr
          endchar
        </CharString>
        <CharString name="Uacute">
          -41 callgsubr
          -169 193 116 callgsubr
        </CharString>
        <CharString name="Ucircumflex">
          -41 callgsubr
          -141 182 rmoveto
          7 -5 -6 4 -11 174 callgsubr
          10 hhcurveto
          58 hlineto
          463 callgsubr
          4 hvcurveto
          32 66 33 -66 rlineto
          -9 4 5 -3 457 callgsubr
          10 2 344 callsubr
        </CharString>
        <CharString name="Udieresis">
          -41 callgsubr
          -162 85 -5 callgsubr
        </CharString>
        <CharString name="Ugrave">
          -41 callgsubr
          -200 174 rmoveto
          14 -8 -9 5 -13 hhcurveto
          -99 hlineto
          -13 -6 250 callsubr
        </CharString>
        <CharString name="Uhungarumlaut">
          -41 callgsubr
          -88 193 170 callsubr
        </CharString>
        <CharString name="Umacron">
          -41 callgsubr
          -99 89 140 callgsubr
        </CharString>
        <CharString name="Uogonek">
          58 394 643 rmoveto
          -22 callsubr
          -453 193 callgsubr
          -69 117 callgsubr
          453 -47 callgsubr
          -459 7 callgsubr
          40 hlineto
          -41 257 callsubr
          9 hlineto
          309 callgsubr
          460 vlineto
          15 456 callgsubr
          endchar
        </CharString>
        <CharString name="Uring">
          -41 callgsubr
          -207 107 rmoveto
          -17 -5 6 19 hvcurveto
          26 vlineto
          20 6 283 callgsubr
          -34 -20 -19 -33 hvcurveto
          -64 vlineto
          -35 20 -19 34 vhcurveto
          endchar
        </CharString>
        <CharString name="V">
          19 327 hmoveto
          12 8 5 16 4 hvcurveto
          155 599 rlineto
          14 3 -7 9 -16 hhcurveto
          -94 hlineto
          -15 -6 -5 -16 -3 hvcurveto
          -105 -492 rlineto
          -4 hlineto
          -105 492 rlineto
          16 -3 -6 5 -15 hhcurveto
          -94 hlineto
          -17 -7 -9 -14 4 hvcurveto
          155 -599 rlineto
          -16 3 9 -5 13 hhcurveto
          endchar
        </CharString>
        <CharString name="W">
          305 287 hmoveto
          12 9 6 15 3 hvcurveto
          91 469 rlineto
          4 hlineto
          90 -469 rlineto
          -14 2 8 -7 14 hhcurveto
          141 hlineto
          14 7 7 14 2 hvcurveto
          108 600 rlineto
          14 2 -7 8 -16 hhcurveto
          -104 hlineto
          -14 -9 -7 -15 -1 hvcurveto
          -57 -492 rlineto
          -8 hlineto
          -98 497 rlineto
          13 -2 -9 4 -11 hhcurveto
          -112 hlineto
          -9 -10 -4 -14 -2 hvcurveto
          -96 -496 rlineto
          -7 hlineto
          -58 493 rlineto
          17 -1 -9 4 -14 hhcurveto
          -104 hlineto
          -15 -8 -7 -14 2 hvcurveto
          107 -601 rlineto
          -16 2 9 -5 14 hhcurveto
          endchar
        </CharString>
        <CharString name="X">
          38 371 20 rmoveto
          -15 6 10 -5 13 hhcurveto
          100 hlineto
          14 7 10 13 -7 hvcurveto
          -155 306 152 291 rlineto
          10 5 -6 13 -14 hhcurveto
          -98 hlineto
          -14 -10 -5 -16 -8 hvcurveto
          -94 -215 rlineto
          -4 hlineto
          -95 215 rlineto
          16 -6 -13 5 -14 hhcurveto
          -96 hlineto
          -13 -7 -11 -11 6 hvcurveto
          150 -292 -155 -307 rlineto
          -12 -6 7 -10 13 hhcurveto
          99 hlineto
          14 9 5 15 7 hvcurveto
          100 216 rlineto
          4 hlineto
          endchar
        </CharString>
        <CharString name="Y">
          72 callgsubr
          endchar
        </CharString>
        <CharString name="Yacute">
          72 callgsubr
          68 836 rmoveto
          -13 -9 427 callgsubr
          -8 5 397 callgsubr
          -6 463 callsubr
        </CharString>
        <CharString name="Ydieresis">
          72 callgsubr
          78 728 -5 callgsubr
        </CharString>
        <CharString name="Z">
          17 callsubr
          endchar
        </CharString>
        <CharString name="Zacute">
          17 callsubr
          259 755 116 callgsubr
        </CharString>
        <CharString name="Zcaron">
          17 callsubr
          200 626 22 callgsubr
        </CharString>
        <CharString name="Zdotaccent">
          17 callsubr
          173 648 rmoveto
          -14 322 callsubr
          14 hvcurveto
          95 405 callsubr
        </CharString>
        <CharString name="a">
          -49 callsubr
          endchar
        </CharString>
        <CharString name="aacute">
          -49 callsubr
          91 268 callsubr
        </CharString>
        <CharString name="abreve">
          16 161 336 callsubr
          -9 -5 -4 -9 hvcurveto
          -9 vlineto
          -31 -11 -12 -23 vhcurveto
          -8 hlineto
          -24 -10 11 32 hvcurveto
          9 350 callsubr
          73 -690 rmoveto
          90 callgsubr
          -16 7 -5 14 vhcurveto
          84 415 callsubr
          -231 -28 callsubr
          126 186 rmoveto
          236 callgsubr
          -37 48 callsubr
          endchar
        </CharString>
        <CharString name="acircumflex">
          -49 callsubr
          114 692 44 callsubr
          10 1 344 callsubr
        </CharString>
        <CharString name="acute">
          -204 132 171 callgsubr
        </CharString>
        <CharString name="adieresis">
          -49 callsubr
          101 595 -5 callgsubr
        </CharString>
        <CharString name="ae">
          253 324 178 rmoveto
          -52 -18 -24 -51 vhcurveto
          -28 hlineto
          -50 -17 17 45 hvcurveto
          9 vlineto
          42 15 17 52 vhcurveto
          85 225 callsubr
          280 70 rmoveto
          -8 -4 -3 -8 vhcurveto
          -131 hlineto
          -7 -4 3 8 hvcurveto
          51 vlineto
          42 17 16 43 vhcurveto
          35 135 callsubr
          -154 -158 rmoveto
          7 4 4 8 vhcurveto
          231 441 callgsubr
          132 385 callsubr
          -44 hlineto
          -42 -51 -9 -46 -26 hvcurveto
          46 -26 -58 9 -42 hhcurveto
          -159 hlineto
          -15 238 callsubr
          -68 vlineto
          -14 5 -7 15 vhcurveto
          163 hlineto
          39 19 -14 -43 hvcurveto
          -13 vlineto
          -5 -2 -3 -5 vhcurveto
          -110 hlineto
          -105 -60 -50 -105 hvcurveto
          -11 vlineto
          -101 63 -55 102 vhcurveto
          16 hlineto
          60 56 14 43 25 hvcurveto
          -39 28 37 -18 60 hhcurveto
          205 225 callgsubr
          -6 7 -15 vhcurveto
          -184 456 callsubr
          42 hvcurveto
          endchar
        </CharString>
        <CharString name="agrave">
          -49 callsubr
          75 388 callgsubr
          81 -96 rlineto
          -8 7 430 callgsubr
          65 hlineto
          14 334 callgsubr
        </CharString>
        <CharString name="amacron">
          -49 callsubr
          171 130 callsubr
        </CharString>
        <CharString name="ampersand">
          116 429 14 rmoveto
          -10 8 14 -4 13 hhcurveto
          107 hlineto
          10 2 10 8 -6 hvcurveto
          -163 194 rlineto
          130 hlineto
          16 5 6 15 hvcurveto
          68 408 callsubr
          -222 hlineto
          -47 54 rlineto
          -23 26 -21 32 31 vvcurveto
          13 vlineto
          42 17 16 38 vhcurveto
          8 hlineto
          34 16 -16 -42 hvcurveto
          -32 vlineto
          -15 7 -7 326 callsubr
          7 15 hvcurveto
          34 382 callgsubr
          -33 hlineto
          -104 -69 -57 -105 hvcurveto
          -11 vlineto
          -47 14 -37 25 -33 vhcurveto
          -68 -8 -33 -63 -62 vvcurveto
          -58 vlineto
          -105 60 -57 105 vhcurveto
          61 hlineto
          70 36 19 47 15 hvcurveto
          -163 45 rmoveto
          -43 -19 16 42 hvcurveto
          43 vlineto
          48 11 18 32 1 vhcurveto
          109 -128 rlineto
          -29 -4 -15 -11 -29 hhcurveto
          endchar
        </CharString>
        <CharString name="aogonek">
          16 336 186 rmoveto
          236 callgsubr
          -37 48 callsubr
          -126 121 rmoveto
          335 callsubr
          -184 7 callgsubr
          24 hlineto
          90 callgsubr
          -3 vlineto
          -37 -71 rlineto
          -24 -15 -3 -41 33 hhcurveto
          27 62 12 31 3 hvcurveto
          4 13 -6 5 -13 -1 rrcurveto
          -2 -36 -3 -7 -5 26 47 16 10 vhcurveto
          62 399 callsubr
        </CharString>
        <CharString name="apostrophemod">
          -317 149 624 52 callgsubr
          endchar
        </CharString>
        <CharString name="approxequal">
          63 178 381 rmoveto
          65 68 -32 73 hhcurveto
          35 28 7 8 297 callsubr
          -29 -48 -79 -60 31 -67 hhcurveto
          -35 -28 -7 -8 -20 hvcurveto
          -20 -8 -8 -9 -20 vvcurveto
          -59 vlineto
          -8 6 -5 450 callgsubr
          -182 vmoveto
          65 68 -32 73 hhcurveto
          35 28 7 8 297 callsubr
          -30 -48 -79 -60 32 -67 hhcurveto
          -35 -28 -7 -8 -20 hvcurveto
          -20 -8 -8 -9 -20 vvcurveto
          -59 vlineto
          -8 6 -5 450 callgsubr
          endchar
        </CharString>
        <CharString name="aring">
          16 191 607 rmoveto
          -32 17 270 callgsubr
          -17 -15 -31 hvcurveto
          43 -21 rmoveto
          23 7 5 20 vhcurveto
          17 350 callgsubr
          -16 hlineto
          -20 -7 6 21 hvcurveto
          -624 vmoveto
          90 callgsubr
          -16 7 -5 14 vhcurveto
          84 415 callsubr
          -231 -28 callsubr
          126 186 rmoveto
          236 callgsubr
          -37 48 callsubr
          endchar
        </CharString>
        <CharString name="asciicircum">
          9 345 382 rmoveto
          -14 7 6 -6 14 hhcurveto
          77 hlineto
          14 9 6 15 -8 hvcurveto
          -120 229 rlineto
          24 -12 -9 7 -23 hhcurveto
          -90 hlineto
          -23 -9 -7 -24 -12 hvcurveto
          -120 -229 rlineto
          -15 -8 9 -6 14 hhcurveto
          77 hlineto
          14 6 6 14 7 hvcurveto
          90 179 rlineto
          endchar
        </CharString>
        <CharString name="asciitilde">
          63 178 289 rmoveto
          65 68 -31 73 hhcurveto
          35 28 6 9 297 callsubr
          -30 -48 -79 -60 32 -67 hhcurveto
          -35 -28 -7 -8 -20 hvcurveto
          -20 -9 -8 -8 -21 vvcurveto
          -58 vlineto
          -8 6 -6 450 callgsubr
          endchar
        </CharString>
        <CharString name="asterisk">
          -104 242 624 rmoveto
          14 -7 5 -13 vhcurveto
          -50 hlineto
          -13 -7 -5 -14 hvcurveto
          -9 vlineto
          -69 47 -60 1 -2 vhcurveto
          1 2 41 60 69 vvcurveto
          -159 -220 rmoveto
          -9 -11 3 -10 11 -6 40 -30 rcurveline
          11 -7 10 0 7 10 5 8 rcurveline
          41 56 -3 76 1 3 -3 -2 -68 -24 -41 -56 rrcurveto
          -8 164 rmoveto
          -14 5 -7 -5 -4 -12 -15 -48 rcurveline
          -4 -12 3 -9 12 -4 9 -3 rcurveline
          -21 66 71 27 3 hhcurveto
          -2 1 -44 57 -67 22 rrcurveto
          259 -77 rmoveto
          14 4 3 9 -4 12 -15 48 rcurveline
          -5 12 -7 5 -13 -4 -9 -3 rcurveline
          -67 -20 -41 -65 -2 -1 3 -1 69 -21 66 22 rrcurveto
          -90 -138 rmoveto
          9 -11 8 0 11 7 41 29 rcurveline
          10 7 1 10 -7 10 -5 8 rcurveline
          -41 56 -73 20 -2 2 rrcurveto
          -3 -1 -74 44 -55 vhcurveto
          endchar
        </CharString>
        <CharString name="at">
          244 440 253 rmoveto
          -44 -14 -32 -55 vhcurveto
          -3 hlineto
          -43 -15 17 41 hvcurveto
          71 vlineto
          42 15 17 43 vhcurveto
          60 356 callsubr
          -9 hvcurveto
          -146 250 rmoveto
          -140 -97 -109 -133 hvcurveto
          -183 vlineto
          -142 107 -94 148 vhcurveto
          179 hlineto
          16 392 callsubr
          30 443 callgsubr
          -180 hlineto
          -109 -73 64 114 hvcurveto
          161 vlineto
          114 64 64 109 vhcurveto
          189 hlineto
          73 61 -38 -79 hvcurveto
          -190 vlineto
          -47 -22 -19 -42 -1 vhcurveto
          -8 -11 3 9 hvcurveto
          270 158 callsubr
          -173 hlineto
          -87 -61 -58 -105 hvcurveto
          -59 vlineto
          -105 61 -50 77 37 44 13 42 18 vhcurveto
          4 -4 hlineto
          -36 33 -15 33 vhcurveto
          58 hlineto
          77 57 54 78 hvcurveto
          206 vlineto
          104 -82 78 -117 vhcurveto
          endchar
        </CharString>
        <CharString name="atilde">
          -49 callsubr
          -57 222 callgsubr
          -20 -5 -6 -7 424 callgsubr
          -39 hlineto
          -9 -2 -2 -10 hvcurveto
          endchar
        </CharString>
        <CharString name="b">
          24 55 407 callgsubr
          240 hlineto
          105 60 58 105 hvcurveto
          186 vlineto
          105 -60 429 callgsubr
          -37 -45 -16 -39 -16 hvcurveto
          -4 225 65 callgsubr
          138 -572 rmoveto
          -7 -4 3 8 hvcurveto
          205 vlineto
          43 14 33 55 vhcurveto
          44 135 callsubr
          -174 193 callgsubr
          endchar
        </CharString>
        <CharString name="backslash">
          -93 259 21 rmoveto
          -16 6 7 -5 14 hhcurveto
          77 hlineto
          14 8 6 15 -6 hvcurveto
          -64 165 -100 271 -64 165 rrcurveto
          14 -6 -6 7 -15 hhcurveto
          -78 hlineto
          -14 -7 -6 -15 6 hvcurveto
          endchar
        </CharString>
        <CharString name="bar">
          -271 159 622 rmoveto
          16 -8 5 -14 vhcurveto
          -43 96 callgsubr
          43 hlineto
          14 8 5 16 hvcurveto
          endchar
        </CharString>
        <CharString name="braceleft">
          -187 235 643 rmoveto
          -102 -47 -58 -105 hvcurveto
          -101 vlineto
          -40 -15 -13 -27 -16 -5 -8 -14 vhcurveto
          -67 vlineto
          -15 5 -7 16 27 15 -13 -40 vhcurveto
          -101 vlineto
          -105 47 -58 102 vhcurveto
          8 444 callsubr
          47 31 callsubr
          -3 hlineto
          -42 -12 17 42 hvcurveto
          126 vlineto
          53 -18 33 -44 12 vhcurveto
          47 15 15 31 53 vvcurveto
          126 vlineto
          42 12 17 42 vhcurveto
          3 444 callsubr
          47 31 callsubr
          endchar
        </CharString>
        <CharString name="braceright">
          -187 201 480 rmoveto
          105 -48 58 -102 vhcurveto
          -7 124 callsubr
          -47 383 callsubr
          3 hlineto
          41 12 -17 -42 hvcurveto
          -126 vlineto
          -53 16 -31 46 -15 vhcurveto
          -44 -12 -18 -33 -53 vvcurveto
          -126 vlineto
          -42 -12 -17 -41 vhcurveto
          -3 124 callsubr
          -47 383 callsubr
          7 hlineto
          102 48 58 105 hvcurveto
          101 vlineto
          40 14 13 28 15 5 7 15 vhcurveto
          67 vlineto
          14 -5 8 -15 -28 -14 13 40 vhcurveto
          endchar
        </CharString>
        <CharString name="bracketleft">
          -179 241 -98 rmoveto
          309 callsubr
          43 31 callsubr
          -50 hlineto
          -8 -4 3 9 hvcurveto
          547 vlineto
          9 4 3 8 vhcurveto
          50 444 callsubr
          43 31 callsubr
          -144 hlineto
          -15 238 callsubr
          -698 vlineto
          -15 5 -7 15 vhcurveto
          endchar
        </CharString>
        <CharString name="bracketright">
          -179 60 -77 327 callsubr
          143 hlineto
          15 5 7 15 hvcurveto
          698 31 callsubr
          -143 124 callsubr
          -43 383 callsubr
          50 hlineto
          7 4 -3 -9 hvcurveto
          -547 vlineto
          -9 -4 -3 -7 vhcurveto
          -50 124 callsubr
          endchar
        </CharString>
        <CharString name="breve">
          -164 53 336 callsubr
          -10 283 callsubr
        </CharString>
        <CharString name="brokenbar">
          -272 158 251 rmoveto
          -3 callgsubr
          -44 hlineto
          -22 callsubr
          -230 -17 callsubr
          44 159 callgsubr
          601 vmoveto
          -3 callgsubr
          -44 hlineto
          -22 callsubr
          -230 -17 callsubr
          44 159 callgsubr
          endchar
        </CharString>
        <CharString name="bullet">
          -208 235 351 rmoveto
          44 -27 26 -45 vhcurveto
          -33 hlineto
          -46 -26 -26 -44 hvcurveto
          -61 vlineto
          -45 26 -25 46 vhcurveto
          33 hlineto
          45 27 25 45 hvcurveto
          endchar
        </CharString>
        <CharString name="c">
          77 callsubr
          endchar
        </CharString>
        <CharString name="cacute">
          77 callsubr
          -125 683 448 callsubr
          -8 5 355 callsubr
        </CharString>
        <CharString name="caron">
          -157 140 198 callsubr
        </CharString>
        <CharString name="ccaron">
          77 callsubr
          -172 554 22 callgsubr
        </CharString>
        <CharString name="ccedilla">
          -91 359 400 rmoveto
          200 callsubr
          -6 7 -15 vhcurveto
          -149 -28 callsubr
          14 hlineto
          -33 -39 rlineto
          -21 -18 12 -34 24 hhcurveto
          26 hlineto
          36 9 -4 -20 hvcurveto
          -2 vlineto
          -18 -8 -5 -37 vhcurveto
          -33 hlineto
          -15 -4 -4 -15 hvcurveto
          -20 vlineto
          -14 3 -4 16 240 callgsubr
          33 33 rlineto
          59 225 callgsubr
          -6 7 -15 vhcurveto
          -129 117 callgsubr
          172 vlineto
          42 16 17 42 vhcurveto
          endchar
        </CharString>
        <CharString name="cedilla">
          -236 62 -39 rmoveto
          202 callsubr
          3 -4 15 240 callgsubr
          53 53 rlineto
          -78 hlineto
          endchar
        </CharString>
        <CharString name="cent">
          -72 287 -94 rmoveto
          12 7 5 14 hvcurveto
          75 63 vlineto
          436 callsubr
          -139 117 callgsubr
          172 vlineto
          42 16 17 42 vhcurveto
          139 hlineto
          15 7 7 13 hvcurveto
          69 vlineto
          14 -24 7 -14 vhcurveto
          -47 78 hlineto
          13 -7 6 -12 vhcurveto
          -63 hlineto
          -13 -7 -7 -13 hvcurveto
          -77 -7 vlineto
          -97 -55 -62 -101 hvcurveto
          -184 vlineto
          -101 55 -62 97 vhcurveto
          7 -74 hlineto
          -14 7 -6 13 vhcurveto
          endchar
        </CharString>
        <CharString name="circumflex">
          -157 227 210 callsubr
        </CharString>
        <CharString name="colon">
          -298 166 144 151 callgsubr
          470 vmoveto
          318 callgsubr
          endchar
        </CharString>
        <CharString name="comma">
          279 callsubr
          -230 446 callsubr
          69 101 rlineto
          15 23 8 17 22 vvcurveto
          endchar
        </CharString>
        <CharString name="copyright">
          201 189 643 rmoveto
          -78 -48 -46 -78 hvcurveto
          -395 vlineto
          -78 48 -46 78 vhcurveto
          326 hlineto
          78 48 46 78 hvcurveto
          395 vlineto
          78 -48 46 -78 vhcurveto
          -301 -569 rmoveto
          -49 -22 17 49 hvcurveto
          363 vlineto
          49 22 17 49 vhcurveto
          275 hlineto
          49 22 -17 -49 hvcurveto
          -363 vlineto
          -49 -22 -17 -49 vhcurveto
          1 329 rmoveto
          70 -40 36 -69 vhcurveto
          -52 hlineto
          -69 -41 -36 -70 hvcurveto
          -162 vlineto
          -69 41 -37 69 vhcurveto
          52 hlineto
          69 40 37 69 hvcurveto
          29 vlineto
          10 -4 4 -9 vhcurveto
          -53 hlineto
          -9 -5 -4 -10 hvcurveto
          -14 vlineto
          -47 -6 -4 -47 vhcurveto
          -5 hlineto
          -46 -6 4 47 hvcurveto
          133 vlineto
          46 6 4 46 vhcurveto
          5 hlineto
          47 6 -4 -46 hvcurveto
          -14 vlineto
          -10 5 -3 9 vhcurveto
          53 hlineto
          9 4 3 10 hvcurveto
          endchar
        </CharString>
        <CharString name="currency">
          37 254 209 rmoveto
          375 callgsubr
          56 304 callgsubr
          31 hlineto
          43 16 -16 -42 hvcurveto
          -56 305 callgsubr
          168 -27 rmoveto
          11 23 5 27 31 vvcurveto
          74 vlineto
          31 -5 25 -10 22 vhcurveto
          62 58 12 437 callgsubr
          -12 -13 rlinecurve
          -71 -67 rlineto
          5 -19 -22 3 -24 hhcurveto
          -69 hlineto
          -24 -21 -2 -5 -19 hvcurveto
          -70 66 396 callsubr
          61 -57 rlineto
          -11 -21 -5 -27 -31 vvcurveto
          -74 vlineto
          -32 5 -27 11 -23 vhcurveto
          -60 -57 -13 -12 1 -9 12 -12 rlinecurve
          42 -42 11 -12 9 -1 13 12 rlinecurve
          66 62 rlineto
          -7 20 23 -3 25 hhcurveto
          69 hlineto
          26 23 4 7 21 hvcurveto
          66 -63 13 -12 9 1 11 12 rlinecurve
          42 461 callgsubr
        </CharString>
        <CharString name="d">
          24 115 callsubr
          endchar
        </CharString>
        <CharString name="dagger">
          -94 215 hmoveto
          14 8 5 16 2 hvcurveto
          9 61 17 156 83 vvcurveto
          26 -6 34 189 callsubr
          108 17 rlineto
          -11 -26 -5 -34 -25 vvcurveto
          -83 17 -156 9 -61 vhcurveto
          -16 2 7 -5 15 hhcurveto
          endchar
        </CharString>
        <CharString name="daggerdbl">
          -94 155 406 rmoveto
          -11 -26 -5 -35 -25 vvcurveto
          -26 5 -34 11 -25 vhcurveto
          -109 16 rlineto
          -16 3 -5 -10 -14 vvcurveto
          -71 vlineto
          -14 5 -7 16 3 vhcurveto
          111 17 -19 -137 rlineto
          -16 -3 10 -5 14 hhcurveto
          133 callsubr
          -20 138 117 -18 rlineto
          15 -3 6 7 14 vvcurveto
          71 vlineto
          14 -6 10 -15 -3 vhcurveto
          -114 -17 rlineto
          11 25 6 35 26 vvcurveto
          26 -6 35 189 callsubr
          endchar
        </CharString>
        <CharString name="danda">
          -193 116 23 218 callgsubr
          endchar
        </CharString>
        <CharString name="dcaron">
          132 115 callsubr
          434 684 rmoveto
          14 -7 346 callgsubr
          52 101 rlineto
          13 25 10 20 34 vvcurveto
          endchar
        </CharString>
        <CharString name="dcroat">
          61 344 186 rmoveto
          236 callgsubr
          -45 hlineto
          454 callsubr
          119 304 callgsubr
          45 hlineto
          55 14 -32 -43 hvcurveto
          -102 -271 rmoveto
          37 45 15 39 16 hvcurveto
          4 -33 419 callsubr
          501 vlineto
          9 4 3 8 vhcurveto
          54 418 callsubr
          -54 hlineto
          -8 -4 3 9 hvcurveto
          43 -47 callgsubr
          -43 vlineto
          -9 -4 -3 -8 vhcurveto
          -130 hlineto
          -15 238 callsubr
          -52 vlineto
          -15 4 -5 16 vhcurveto
          130 356 callsubr
          -9 hvcurveto
          -120 -4 vlineto
          39 -16 -45 16 -37 hhcurveto
          -32 188 callsubr
          -131 7 callgsubr
          endchar
        </CharString>
        <CharString name="degree">
          -123 196 557 rmoveto
          -14 hlineto
          -18 -4 4 17 hvcurveto
          56 vlineto
          19 4 3 18 vhcurveto
          14 hlineto
          17 5 -3 -19 hvcurveto
          -56 vlineto
          -17 -5 -4 -17 vhcurveto
          24 -47 rmoveto
          30 20 18 31 hvcurveto
          97 vlineto
          30 -20 17 -30 vhcurveto
          -62 hlineto
          -31 -18 -17 -30 hvcurveto
          -97 vlineto
          -31 18 -18 31 vhcurveto
          endchar
        </CharString>
        <CharString name="dieresis">
          -86 243 595 155 callgsubr
          -190 -88 155 callgsubr
          endchar
        </CharString>
        <CharString name="divide">
          -38 190 432 rmoveto
          -15 18 callgsubr
          43 hlineto
          14 8 5 15 hvcurveto
          49 vlineto
          16 -8 5 -14 vhcurveto
          -43 hlineto
          -22 callsubr
          183 -203 rmoveto
          309 callsubr
          43 31 callsubr
          -281 124 callsubr
          -43 383 callsubr
          98 -118 408 callgsubr
          43 hlineto
          14 8 5 16 hvcurveto
          49 vlineto
          15 -8 5 -14 vhcurveto
          -43 hlineto
          -14 -7 -5 -15 hvcurveto
          endchar
        </CharString>
        <CharString name="dollar">
          25 296 -98 305 callsubr
          77 2 vlineto
          100 62 60 104 hvcurveto
          38 vlineto
          137 -85 30 -81 7 vhcurveto
          -38 3 rlineto
          -59 5 -45 7 46 vvcurveto
          20 vlineto
          60 16 16 54 vhcurveto
          32 hlineto
          54 16 -15 -51 hvcurveto
          -7 vlineto
          -15 7 -6 14 vhcurveto
          85 441 callgsubr
          19 vlineto
          101 -58 63 -95 vhcurveto
          -2 79 hlineto
          -3 callgsubr
          -60 hlineto
          -22 callsubr
          -79 -7 vlineto
          -103 -59 -59 -105 hvcurveto
          -37 vlineto
          -146 88 -24 84 -8 vhcurveto
          33 -3 rlineto
          58 -5 45 -8 -52 vvcurveto
          -15 vlineto
          -55 -18 -16 -52 vhcurveto
          -40 hlineto
          -53 -17 15 51 hvcurveto
          7 -47 callgsubr
          -19 vlineto
          -103 60 -61 101 vhcurveto
          7 -77 hlineto
          -18 callsubr
          endchar
        </CharString>
        <CharString name="dotaccent">
          -268 53 591 rmoveto
          359 callgsubr
          96 405 callsubr
        </CharString>
        <CharString name="dotlessi">
          -246 64 55 callsubr
          endchar
        </CharString>
        <CharString name="dottedcircle">
          158 139 517 rmoveto
          -26 18 -19 26 26 18 19 26 25 -18 19 -26 -26 -18 -19 -25 vhcurveto
          -82 -110 rmoveto
          -25 20 -19 26 24 20 19 25 25 -20 19 -24 -26 -20 -19 -25 vhcurveto
          -13 -126 rmoveto
          -25 19 -18 25 26 18 18 457 callsubr
          52 -116 rmoveto
          -26 18 -18 26 25 19 18 26 25 -19 19 -25 -26 -18 -19 -25 vhcurveto
          101 -75 rmoveto
          -26 19 -20 26 25 19 20 26 24 -19 20 -25 -26 -19 -20 -24 vhcurveto
          127 -16 rmoveto
          -26 18 -18 26 26 19 18 26 26 -19 18 -26 -26 -18 -18 -26 vhcurveto
          121 53 rmoveto
          -26 19 -18 25 25 20 18 26 25 -20 19 -25 -25 -19 -19 -25 vhcurveto
          73 98 rmoveto
          -25 19 -19 26 24 19 19 25 26 -19 19 -24 -26 -19 -19 -26 vhcurveto
          10 134 rmoveto
          -26 18 -18 26 25 19 18 26 26 -19 18 -25 -26 -18 -18 -26 vhcurveto
          -50 118 rmoveto
          -25 19 -19 25 26 18 19 457 callsubr
          -95 68 rmoveto
          -24 19 -20 26 25 18 20 24 26 -18 19 -25 -26 -19 -19 -26 vhcurveto
          -126 15 rmoveto
          -26 18 -18 26 26 18 18 26 26 -18 18 -26 -26 -18 -18 -26 vhcurveto
          endchar
        </CharString>
        <CharString name="doubledanda">
          44 116 23 218 callgsubr
          237 -577 218 callgsubr
          endchar
        </CharString>
        <CharString name="dvA">
          107 477 623 rmoveto
          -10 callgsubr
          54 hlineto
          18 6 -101 callsubr
          -6 7 -18 vhcurveto
          endchar
        </CharString>
        <CharString name="dvAA">
          344 477 623 rmoveto
          -10 callgsubr
          96 hlineto
          8 4 -5 -9 hvcurveto
          -482 vlineto
          -107 callgsubr
          endchar
        </CharString>
        <CharString name="dvAI">
          18 470 623 rmoveto
          -15 -4 6 13 -8 hvcurveto
          -140 233 49 callsubr
          41 -63 33 -39 53 -52 rlinecurve
          -362 hlineto
          -27 callsubr
          53 385 callgsubr
          -283 vlineto
          -110 71 -85 129 vhcurveto
          153 hlineto
          194 callsubr
          57 vlineto
          16 -7 8 -17 vhcurveto
          -128 hlineto
          -73 -37 33 61 hvcurveto
          278 380 callgsubr
          156 385 callgsubr
          -85 vlineto
          -49 -25 -13 -48 vhcurveto
          -16 hlineto
          -16 -8 -7 -16 hvcurveto
          -55 123 callsubr
          33 hlineto
          109 62 56 108 hvcurveto
          85 380 callgsubr
          41 -92 callsubr
          endchar
        </CharString>
        <CharString name="dvAU">
          344 798 623 rmoveto
          269 callsubr
          -14 vlineto
          -63 17 -78 35 -78 87 callgsubr
          53 -41 rlinecurve
          -4 -183 vlineto
          -10 callgsubr
          96 hlineto
          8 4 -5 -9 hvcurveto
          -482 vlineto
          -107 callgsubr
          endchar
        </CharString>
        <CharString name="dvAbbreviationsign">
          -58 402 307 rmoveto
          27 vlineto
          98 -56 53 -99 vhcurveto
          -46 hlineto
          -99 -56 -53 -98 hvcurveto
          -27 vlineto
          -98 56 -53 99 vhcurveto
          46 hlineto
          99 56 53 98 hvcurveto
          -240 4 rmoveto
          19 vlineto
          44 12 16 48 vhcurveto
          4 hlineto
          48 13 -16 -44 hvcurveto
          -19 vlineto
          -44 -13 -16 -48 vhcurveto
          -4 hlineto
          -48 -12 16 44 hvcurveto
          endchar
        </CharString>
        <CharString name="dvAcandra">
          107 477 623 rmoveto
          -10 callgsubr
          54 hlineto
          18 6 -101 callsubr
          -6 7 -18 vhcurveto
          -28 245 rmoveto
          359 callsubr
          -63 45 callsubr
          107 hlineto
          78 39 49 84 hvcurveto
          3 vlineto
          22 -10 12 -19 vhcurveto
          endchar
        </CharString>
        <CharString name="dvAnusvara">
          -502 -60 211 callsubr
          endchar
        </CharString>
        <CharString name="dvAnusvara.amI">
          -502 155 211 callsubr
          endchar
        </CharString>
        <CharString name="dvAvagraha">
          44 482 201 rmoveto
          100 -46 26 -75 31 vhcurveto
          -80 33 -66 14 62 vvcurveto
          43 25 9 43 vhcurveto
          141 -105 callgsubr
          -164 hlineto
          -118 -45 -41 -116 -104 51 -44 76 -34 hvcurveto
          74 -33 67 -1 -57 vvcurveto
          -21 vlineto
          -45 -17 -21 -47 vhcurveto
          -69 hlineto
          -58 -12 41 20 -18 hvcurveto
          7 -6 -6 4 -8 hhcurveto
          -5 -4 -1 -8 -10 hvcurveto
          -32 -24 rlineto
          -11 -8 -5 -7 -10 vvcurveto
          -5 2 -5 1 -2 vhcurveto
          -46 25 47 -62 99 hhcurveto
          91 hlineto
          97 63 61 98 hvcurveto
          endchar
        </CharString>
        <CharString name="dvB">
          -220 222 169 rmoveto
          133 callgsubr
          96 112 rmoveto
          -16 -8 -6 -18 hvcurveto
          -16 -10 callsubr
          95 58 61 121 hvcurveto
          6 -87 callgsubr
          -397 342 -50 callgsubr
          417 -78 callsubr
          endchar
        </CharString>
        <CharString name="dvBA">
          21 221 169 56 callsubr
          -274 71 callgsubr
          340 30 callgsubr
          -110 -59 -64 -106 -1 hvcurveto
          280 callsubr
          -62 107 vhcurveto
          40 -98 callgsubr
        </CharString>
        <CharString name="dvBH">
          372 callgsubr
          -181 hlineto
          15 callgsubr
          181 291 288 callgsubr
          -95 -59 callgsubr
          endchar
        </CharString>
        <CharString name="dvBHA">
          8 321 228 379 callgsubr
          -191 vlineto
          -107 callgsubr
          -232 hlineto
          45 callgsubr
          -13 31 callgsubr
          -56 vlineto
          -16 8 -8 16 vhcurveto
          13 hlineto
          40 13 -23 -48 136 callsubr
          endchar
        </CharString>
        <CharString name="dvBH_LA">
          418 275 -30 callsubr
          458 202 callgsubr
          -77 -55 -40 -73 -18 hvcurveto
          -137 hlineto
          15 callgsubr
          130 -33 hlineto
          -109 61 -61 109 vhcurveto
          -74 callgsubr
          -250 vlineto
          -107 callgsubr
          endchar
        </CharString>
        <CharString name="dvBH_NA">
          289 275 -33 callgsubr
          329 hlineto
          251 callgsubr
          -56 -43 -27 -44 -17 hvcurveto
          -143 hlineto
          15 callgsubr
          140 hlineto
          3 -12 5 -11 7 -8 rrcurveto
          -51 callgsubr
          -259 vlineto
          -107 callgsubr
          endchar
        </CharString>
        <CharString name="dvBH_R">
          -224 341 186 callsubr
          -66 hlineto
          -73 callgsubr
          -86 -169 rmoveto
          97 callgsubr
          115 239 callgsubr
        </CharString>
        <CharString name="dvBH_RA">
          8 284 623 213 callsubr
          -141 vlineto
          -9 -4 -5 -8 vhcurveto
          -132 hlineto
          97 callgsubr
          132 hlineto
          5 4 -2 -4 2 hvcurveto
          -245 -236 131 callgsubr
          111 112 rlineto
          -82 vlineto
          -107 callgsubr
          endchar
        </CharString>
        <CharString name="dvBH_R_YA">
          376 701 -15 callgsubr
          -21 -147 vlineto
          97 callgsubr
          149 hlineto
          -251 -242 131 callgsubr
          155 156 rlineto
          -45 35 56 -32 80 hhcurveto
          33 hlineto
          59 38 20 33 19 hvcurveto
          4 -102 hlineto
          -107 callgsubr
          endchar
        </CharString>
        <CharString name="dvBH_VA">
          292 275 42 callsubr
          -95 -56 -47 -81 -15 hvcurveto
          -135 hlineto
          15 callgsubr
          131 hlineto
          -100 5 63 -57 103 hhcurveto
          30 -98 callgsubr
        </CharString>
        <CharString name="dvBH_YA">
          361 686 -15 callgsubr
          -41 -132 vlineto
          15 callgsubr
          137 hlineto
          -83 19 66 -73 122 hhcurveto
          33 hlineto
          59 38 20 33 19 hvcurveto
          4 -102 hlineto
          -107 callgsubr
          endchar
        </CharString>
        <CharString name="dvB_BA">
          323 523 169 56 callsubr
          -348 hmoveto
          -16 callsubr
          642 30 callgsubr
          -110 -59 -64 -106 -1 hvcurveto
          -51 -10 callsubr
          51 41 18 35 26 hvcurveto
          -33 30 45 -18 57 hhcurveto
          40 -98 callgsubr
        </CharString>
        <CharString name="dvB_BHA">
          299 433 callsubr
          5 0 4 1 5 vhcurveto
          141 -134 rlineto
          -1 -4 -5 0 -5 hhcurveto
          296 454 213 callsubr
          -121 145 callsubr
          68 108 callsubr
          -304 31 callgsubr
          -56 vlineto
          -16 8 -53 callsubr
          304 328 callgsubr
          -218 vlineto
          -7 -2 -7 -3 -7 vhcurveto
          -156 148 rlineto
          3 9 12 2 13 128 callgsubr
          87 hlineto
          113 51 70 75 6 hvcurveto
          2 0 3 2 vvcurveto
          31 -104 callsubr
          144 -245 hlineto
          -107 callgsubr
          endchar
        </CharString>
        <CharString name="dvB_BH_RA">
          298 375 callsubr
          156 -139 rlineto
          -3 -8 -10 -2 -12 hhcurveto
          296 454 213 callsubr
          -121 145 callsubr
          68 108 callsubr
          -303 31 callgsubr
          -56 vlineto
          -16 8 -53 callsubr
          303 328 callgsubr
          -225 vlineto
          -1 vlineto
          -153 137 264 callgsubr
          98 hlineto
          121 37 76 74 1 hvcurveto
          2 vlineto
          31 -104 callsubr
          144 -45 hlineto
          -233 -224 131 callgsubr
          98 99 rlineto
          -62 vlineto
          -107 callgsubr
          endchar
        </CharString>
        <CharString name="dvB_DA">
          282 222 169 rmoveto
          -16 callsubr
          607 69 callgsubr
          -55 -10 callsubr
          48 38 15 31 26 hvcurveto
          -35 27 44 -19 63 127 callgsubr
        </CharString>
        <CharString name="dvB_DHA">
          340 222 176 rmoveto
          13 callsubr
          42 vlineto
          6 0 5 1 5 vhcurveto
          143 -127 rlineto
          -2 -8 -8 -1 -10 hhcurveto
          348 447 rmoveto
          -21 callsubr
          17 90 callsubr
          57 vlineto
          15 -8 8 -15 vhcurveto
          -510 -59 callgsubr
          371 337 callgsubr
          -12 vlineto
          -8 -1 -8 -1 -7 vhcurveto
          -148 132 rlineto
          3 9 11 2 13 hhcurveto
          35 hlineto
          16 8 8 15 hvcurveto
          53 -87 callgsubr
          -49 hlineto
          -110 -59 -64 -106 -1 hvcurveto
          -44 242 callsubr
          -64 107 vhcurveto
          45 hlineto
          52 41 14 30 27 hvcurveto
          -29 25 40 -15 51 hhcurveto
          83 hlineto
          43 31 20 25 12 hvcurveto
          4 -98 hlineto
          -107 callgsubr
          endchar
        </CharString>
        <CharString name="dvB_DH_VA">
          631 375 callsubr
          153 -137 rlineto
          -4 -10 -12 -3 -15 hhcurveto
          351 71 callgsubr
          325 209 callsubr
          1 -6 vhcurveto
          -20 -16 -20 -25 -46 -3 callsubr
          -511 -59 callgsubr
          383 164 callsubr
          -5 vlineto
          0 vlineto
          -156 139 264 callgsubr
          50 hlineto
          57 43 18 24 31 hvcurveto
          -27 25 39 -14 49 hhcurveto
          83 hlineto
          51 38 20 25 27 hvcurveto
          -30 29 44 -16 54 hhcurveto
          30 -98 callgsubr
        </CharString>
        <CharString name="dvB_JA">
          403 150 279 rmoveto
          8 1 8 1 7 vhcurveto
          169 -152 rlineto
          -100 26 callsubr
          -156 401 -50 callgsubr
          724 145 callgsubr
          -286 hlineto
          -32 callsubr
          -47 vlineto
          -36 -3 -32 -66 vhcurveto
          -41 hlineto
          -221 198 rlineto
          2 8 321 callgsubr
          61 21 callgsubr
          -110 -59 -64 -106 -1 hvcurveto
          -73 113 callsubr
          287 199 callsubr
          4 107 -2 callgsubr
          -294 vlineto
          -107 callgsubr
          endchar
        </CharString>
        <CharString name="dvB_JHA">
          509 834 294 117 callsubr
          -337 hlineto
          329 callgsubr
          21 vlineto
          21 6 11 24 vhcurveto
          182 368 callsubr
          -612 -336 rmoveto
          -16 callsubr
          605 207 callgsubr
          -4 -5 -8 vhcurveto
          -122 365 callgsubr
          -32 vlineto
          -1 vlineto
          -1 vlineto
          -66 455 callgsubr
          -1 -5 vhcurveto
          -149 133 rlineto
          3 9 11 2 13 128 callgsubr
          70 hlineto
          87 54 39 80 17 hvcurveto
          -6 21 24 -3 25 hhcurveto
          97 hlineto
          25 9 -12 -24 hvcurveto
          -67 vlineto
          -27 -10 -11 -24 vhcurveto
          -36 hlineto
          -27 -18 5 32 18 -8 6 -16 hvcurveto
          -67 237 callgsubr
          -17 hvcurveto
          -159 38 callgsubr
          48 4 vlineto
          -18 9 20 -10 33 hhcurveto
          32 231 callgsubr
          92 vlineto
          6 -1 5 -2 6 vhcurveto
          72 -97 callsubr
          -142 vlineto
          -107 callgsubr
          endchar
        </CharString>
        <CharString name="dvB_J_YA">
          752 1077 290 -97 callgsubr
          -927 -226 rmoveto
          8 1 8 1 7 vhcurveto
          169 -152 rlineto
          -100 26 callsubr
          -156 401 96 callsubr
          812 hlineto
          -7 callgsubr
          -43 vhcurveto
          28 -17 -30 16 -44 hhcurveto
          -286 hlineto
          -32 callsubr
          -47 vlineto
          -36 -3 -32 -66 vhcurveto
          -41 hlineto
          -221 198 rlineto
          2 8 321 callgsubr
          61 21 callgsubr
          -110 -59 -64 -106 -1 hvcurveto
          -73 113 callsubr
          287 199 callsubr
          4 73 vlineto
          24 6 -10 -21 hvcurveto
          -22 vlineto
          -101 66 -105 146 vhcurveto
          33 hlineto
          59 38 20 33 19 hvcurveto
          4 -102 hlineto
          -107 callgsubr
          endchar
        </CharString>
        <CharString name="dvB_JxA">
          403 385 -18 rmoveto
          -83 callgsubr
          65 vlineto
          19 callsubr
          -305 297 rmoveto
          8 1 8 1 7 vhcurveto
          169 -152 rlineto
          -100 26 callsubr
          -156 401 -50 callgsubr
          724 145 callgsubr
          -286 hlineto
          -32 callsubr
          -47 vlineto
          -36 -3 -32 -66 vhcurveto
          -41 hlineto
          -221 198 rlineto
          2 8 321 callgsubr
          61 21 callgsubr
          -110 -59 -64 -106 -1 hvcurveto
          -73 113 callsubr
          287 199 callsubr
          4 107 -2 callgsubr
          -294 vlineto
          -107 callgsubr
          endchar
        </CharString>
        <CharString name="dvB_LA">
          440 222 169 rmoveto
          -16 callsubr
          761 202 callgsubr
          -95 -62 -61 -110 hvcurveto
          -31 -10 callsubr
          40 34 11 22 25 hvcurveto
          -50 26 52 -27 72 hhcurveto
          -74 callgsubr
          -250 vlineto
          -107 callgsubr
          endchar
        </CharString>
        <CharString name="dvB_L_YA">
          807 1132 76 callgsubr
          28 64 hvcurveto
          5 197 callgsubr
          47 11 callsubr
          -910 -336 rmoveto
          -16 callsubr
          867 259 callsubr
          -41 -10 callsubr
          42 35 12 24 26 hvcurveto
          -46 27 50 -24 69 hhcurveto
          -102 callgsubr
          15 15 34 47 4 -39 -14 vhcurveto
          -23 vlineto
          -101 66 -95 146 vhcurveto
          33 hlineto
          59 38 20 33 19 hvcurveto
          4 -102 hlineto
          -107 callgsubr
          endchar
        </CharString>
        <CharString name="dvB_NA">
          353 298 172 rmoveto
          -2 -9 -9 -1 -11 hhcurveto
          374 callgsubr
          62 vlineto
          123 59 rmoveto
          55 callgsubr
          71 hlineto
          72 47 23 53 24 hvcurveto
          -237 211 rlineto
          4 10 12 2 14 hhcurveto
          -230 261 -50 callgsubr
          674 hlineto
          251 callgsubr
          -73 -51 -46 -71 391 callsubr
          hvcurveto
          -51 callgsubr
          -259 vlineto
          -107 callgsubr
          endchar
        </CharString>
        <CharString name="dvB_R">
          -197 372 257 rmoveto
          -10 -11 -9 -11 -8 -8 -147 132 rcurveline
          2 7 9 224 callgsubr
          -110 -59 -64 -106 -1 hvcurveto
          -51 vlineto
          -104 68 -54 79 vhcurveto
          4 -4 hlineto
          0 -36 -15 -34 -37 vhcurveto
          -32 -34 -33 callsubr
          60 62 140 149 rlineto
          10 12 9 7 314 callgsubr
          -24 20 219 callgsubr
          -221 33 rmoveto
          8 0 8 2 7 vhcurveto
          151 -135 rlineto
          -6 -10 -10 -3 -15 hhcurveto
          374 callgsubr
          -157 382 rmoveto
          -73 callgsubr
          386 -105 callgsubr
          endchar
        </CharString>
        <CharString name="dvB_RA">
          22 191 79 rmoveto
          0 -36 -15 -34 -37 vhcurveto
          -32 -34 -33 callsubr
          57 62 61 67 rlineto
          -95 callsubr
          -536 -59 callgsubr
          341 99 callgsubr
          7 9 224 callgsubr
          -110 -59 -64 -106 -1 hvcurveto
          -51 vlineto
          -104 68 -54 79 vhcurveto
          4 hlineto
          -40 207 rmoveto
          8 0 8 2 7 vhcurveto
          153 -137 rlineto
          -5 -10 -12 -2 -15 hhcurveto
          374 callgsubr
          endchar
        </CharString>
        <CharString name="dvB_SA">
          412 737 351 -23 callgsubr
          -515 -336 rmoveto
          -16 callsubr
          474 -97 callsubr
          -68 callgsubr
          -67 -10 callsubr
          64 48 28 56 24 hvcurveto
          86 -140 -48 callsubr
          -123 194 rlineto
          249 -97 callsubr
          -196 vlineto
          -107 callgsubr
          endchar
        </CharString>
        <CharString name="dvB_SHA">
          429 298 600 rmoveto
          15 -81 callsubr
          -280 -59 callgsubr
          280 -89 callsubr
          -76 -374 rmoveto
          371 callsubr
          -8 -10 -1 -11 hhcurveto
          86 262 162 callgsubr
          -61 vlineto
          -7 0 -6 -1 -6 vhcurveto
          -152 135 rlineto
          3 9 11 2 13 hhcurveto
          64 callgsubr
          54 hlineto
          65 48 29 57 24 hvcurveto
          104 -142 203 callsubr
          190 rlineto
          11 callgsubr
          441 146 365 callsubr
          -554 vlineto
          -107 callgsubr
          endchar
        </CharString>
        <CharString name="dvB_TA">
          307 222 169 rmoveto
          -16 callsubr
          628 244 callsubr
          -26 -10 callsubr
          35 30 8 17 24 hvcurveto
          -62 19 46 -32 80 hhcurveto
          -62 callsubr
          -9 hlineto
          -56 1 -12 18 50 vvcurveto
          91 vlineto
          75 callsubr
          -293 vlineto
          -107 callgsubr
          endchar
        </CharString>
        <CharString name="dvB_VA">
          313 222 169 rmoveto
          -16 callsubr
          632 209 callsubr
          -1 -5 vhcurveto
          -149 133 rlineto
          3 9 11 2 13 hhcurveto
          64 callgsubr
          51 hlineto
          51 41 18 35 26 hvcurveto
          -33 30 45 -18 57 hhcurveto
          30 -98 callgsubr
        </CharString>
        <CharString name="dvB_YA">
          381 706 290 -97 callgsubr
          -484 -336 rmoveto
          -16 callsubr
          441 147 callsubr
          -5 0 -5 -4 -2 0 -3 -2 vvcurveto
          -16 -10 callsubr
          59 44 23 47 26 hvcurveto
          -40 35 53 -27 74 hhcurveto
          33 hlineto
          59 38 20 33 19 hvcurveto
          4 -102 hlineto
          -107 callgsubr
          endchar
        </CharString>
        <CharString name="dvC">
          -150 472 519 288 callgsubr
          -478 -59 callgsubr
          323 -440 rmoveto
          91 59 60 74 callsubr
          -10 -7 -7 -9 -8 hvcurveto
          -21 -18 -21 -33 -53 hhcurveto
          -32 252 callsubr
          26 242 callgsubr
          -21 vlineto
          -108 59 -58 108 vhcurveto
          endchar
        </CharString>
        <CharString name="dvCA">
          89 134 345 rmoveto
          404 callgsubr
          49 hlineto
          56 29 24 24 12 hvcurveto
          4 -103 -42 callgsubr
          71 -92 callgsubr
          -603 -59 callgsubr
          407 88 callsubr
        </CharString>
        <CharString name="dvCH">
          51 -6 623 35 callgsubr
          413 callgsubr
          126 vlineto
          85 -41 46 -89 vhcurveto
          -41 287 callsubr
          32 hlineto
          16 10 -11 -14 hvcurveto
          -111 122 callgsubr
          343 hlineto
          194 callsubr
          56 370 callgsubr
        </CharString>
        <CharString name="dvCHA">
          51 396 208 rmoveto
          -49 -18 -16 -50 vhcurveto
          -94 hlineto
          -46 -20 12 43 hvcurveto
          16 vlineto
          -37 callsubr
          -402 344 rmoveto
          -16 -8 -7 -16 hvcurveto
          -56 vlineto
          -17 8 -7 16 -1 vhcurveto
          86 -4 hlineto
          -17 -7 -11 -16 -25 vvcurveto
          -86 vlineto
          -35 20 -29 35 -6 vhcurveto
          -4 vlineto
          -40 -13 -15 -36 -43 211 callgsubr
        </CharString>
        <CharString name="dvCH_R">
          51 348 -132 rmoveto
          13 -9 -10 7 -14 hhcurveto
          -66 hlineto
          -68 callsubr
          -272 481 rmoveto
          -37 callsubr
          -71 351 callsubr
          -174 425 35 callgsubr
          -74 39 -47 63 -18 vhcurveto
          -71 -95 rlineto
          -76 callsubr
          -68 92 rlineto
          73 21 31 65 62 vvcurveto
          23 callsubr
        </CharString>
        <CharString name="dvCH_RA">
          51 168 214 rmoveto
          -37 callsubr
          -71 351 callsubr
          -174 425 35 callgsubr
          -74 39 -47 63 -18 vhcurveto
          -71 -95 rlineto
          -76 callsubr
          -68 92 rlineto
          73 21 31 65 62 vvcurveto
          23 callsubr
        </CharString>
        <CharString name="dvCH_R_YA">
          566 891 234 75 callgsubr
          36 -82 hvcurveto
          -336 287 callsubr
          32 hlineto
          16 10 -11 -14 hvcurveto
          -111 122 callgsubr
          663 -97 callsubr
          -897 118 35 callgsubr
          -77 42 -48 68 -16 vhcurveto
          -72 -97 rlineto
          -76 callsubr
          -72 97 rlineto
          71 22 30 64 61 vvcurveto
          126 vlineto
          9 -1 9 -1 9 vhcurveto
          171 hlineto
          26 11 -9 74 callgsubr
        </CharString>
        <CharString name="dvCH_YA">
          558 883 248 75 callgsubr
          37 -82 hvcurveto
          -328 287 callsubr
          32 hlineto
          16 10 -11 -14 hvcurveto
          -126 122 callgsubr
          655 -97 callsubr
          -889 118 35 callgsubr
          413 callgsubr
          141 vlineto
          11 -1 10 -1 9 vhcurveto
          163 hlineto
          26 11 -12 -26 -25 -10 -15 9 callsubr
        </CharString>
        <CharString name="dvC_CA">
          409 -15 callsubr
          727 357 callgsubr
          26 20 callsubr
          -256 6 callsubr
          -57 vlineto
          -16 7 -7 17 vhcurveto
          63 363 callgsubr
          -36 vvcurveto
          -20 vlineto
          -3 -2 -2 -3 -3 -3 rrcurveto
          -21 -18 -21 -34 -54 hhcurveto
          -32 252 callsubr
          26 252 callgsubr
          10 -92 callsubr
          -240 296 callsubr
          54 hlineto
          57 45 24 29 31 hvcurveto
          -35 28 45 -18 60 hhcurveto
          49 hlineto
          56 29 24 24 12 hvcurveto
          4 -103 -42 callgsubr
          71 -92 callgsubr
          endchar
        </CharString>
        <CharString name="dvC_CHA">
          413 758 208 rmoveto
          -49 -18 -16 -50 vhcurveto
          -94 hlineto
          -46 -20 12 43 hvcurveto
          16 vlineto
          -37 callsubr
          -764 344 -50 callgsubr
          448 93 callsubr
          vlineto
          -36 -12 -16 -31 -3 -37 rrcurveto
          -20 -16 -22 -24 -45 hhcurveto
          -48 252 callsubr
          26 242 callgsubr
          -21 vlineto
          -108 59 -58 108 vhcurveto
          70 hlineto
          39 34 11 17 27 hvcurveto
          -46 27 53 -24 70 hhcurveto
          72 callsubr
        </CharString>
        <CharString name="dvC_CH_VA">
          411 651 -57 rmoveto
          406 callsubr
          77 hlineto
          17 17 2 4 16 hvcurveto
          -54 vlineto
          -34 -13 -28 -60 vhcurveto
          -135 276 rmoveto
          31 14 16 33 vhcurveto
          22 hlineto
          16 8 8 14 248 callgsubr
          -32 hlineto
          -23 -14 13 23 hvcurveto
          66 vlineto
          31 16 18 32 vhcurveto
          138 hlineto
          9 -1 4 -3 -9 vvcurveto
          -60 vlineto
          -12 -2 -11 -3 -10 vhcurveto
          -24 287 callsubr
          32 hlineto
          16 10 -11 -14 hvcurveto
          -65 351 callsubr
          -549 414 -50 callgsubr
          461 -4 hlineto
          -17 -7 -11 -16 -25 vvcurveto
          -81 vlineto
          -35 20 -29 35 -6 vhcurveto
          -4 vlineto
          -35 -11 -16 -29 -3 -35 rrcurveto
          -21 -18 -21 -33 -53 hhcurveto
          -53 252 callsubr
          26 252 callgsubr
          40 -92 callsubr
          -270 296 callsubr
          75 hlineto
          45 37 15 20 29 hvcurveto
          11 -16 14 -13 18 -9 rrcurveto
          -18 -20 -11 -29 -44 vvcurveto
          -88 62 -53 98 vhcurveto
          81 hlineto
          99 59 67 104 hvcurveto
          128 vlineto
          14 24 8 28 29 vvcurveto
          60 vlineto
          55 -17 38 -36 21 vhcurveto
          18 15 13 24 34 vvcurveto
          38 vlineto
          463 callgsubr
          vhcurveto
          58 hlineto
          194 callsubr
          56 370 callgsubr
        </CharString>
        <CharString name="dvC_MA">
          361 686 367 274 callgsubr
          138 156 callsubr
          -692 320 callsubr
          409 -91 callsubr
          -268 vlineto
          -47 -22 -22 -50 vhcurveto
          -58 252 callsubr
          11 242 callgsubr
          -6 221 callgsubr
          98 hlineto
          108 61 58 108 hvcurveto
          7 -104 callsubr
          132 -97 callsubr
          -214 vlineto
          -107 callgsubr
          endchar
        </CharString>
        <CharString name="dvC_NA">
          378 -15 callsubr
          699 -91 callsubr
          -100 -19 callsubr
          -154 hlineto
          -71 -50 -44 -67 -3 hvcurveto
          -6 -7 rlineto
          -21 -18 -21 -33 -53 hhcurveto
          -32 hlineto
          -43 -29 12 47 hvcurveto
          10 242 callgsubr
          -5 vlineto
          -101 59 -55 108 vhcurveto
          54 hlineto
          48 38 18 24 29 hvcurveto
          3 -10 4 -7 4 -5 260 callsubr
          -13 34 40 144 callsubr
          -249 vlineto
          -107 callgsubr
          endchar
        </CharString>
        <CharString name="dvC_R">
          -146 379 519 288 callgsubr
          -385 -59 callgsubr
          347 -465 rmoveto
          123 130 rlineto
          11 12 5 9 8 vvcurveto
          8 -4 4 -7 7 vhcurveto
          -25 23 rlineto
          8 -8 -5 2 -4 hhcurveto
          -8 -6 -4 -9 -7 hvcurveto
          -47 -38 -17 -22 -46 hhcurveto
          -22 252 callsubr
          26 249 callsubr
          -41 vvcurveto
          -29 vlineto
          -89 60 -54 80 vhcurveto
          8 -4 hlineto
          282 callsubr
          rrcurveto
          endchar
        </CharString>
        <CharString name="dvC_RA">
          89 244 85 rmoveto
          282 callsubr
          22 24 24 25 22 24 rrcurveto
          4 -103 -42 callgsubr
          71 -92 callgsubr
          -603 -59 callgsubr
          407 95 callgsubr
          -4 hlineto
          -28 -12 -10 -31 -41 vvcurveto
          -29 vlineto
          -89 60 -54 80 vhcurveto
          8 hlineto
          endchar
        </CharString>
        <CharString name="dvC_YA">
          448 773 290 -97 callgsubr
          -779 18 callsubr
          508 147 callsubr
          -12 1 -13 2 -12 vhcurveto
          -4 -4 rlineto
          -21 -18 -21 -33 -53 hhcurveto
          -32 252 callsubr
          26 242 callgsubr
          -21 vlineto
          -108 59 -58 108 vhcurveto
          54 hlineto
          62 47 28 32 32 hvcurveto
          -40 34 54 -27 74 hhcurveto
          33 hlineto
          59 38 20 33 19 hvcurveto
          4 -102 hlineto
          -107 callgsubr
          endchar
        </CharString>
        <CharString name="dvCandrabindu">
          -502 -60 908 14 callgsubr
          21 -160 223 callsubr
          -93 45 callsubr
          endchar
        </CharString>
        <CharString name="dvD">
          -19 187 hmoveto
          -68 callsubr
          -92 135 rlineto
          13 -9 -10 7 -14 hhcurveto
          -50 67 callsubr
        </CharString>
        <CharString name="dvDA">
          -19 203 67 callsubr
        </CharString>
        <CharString name="dvDA_mvR">
          -141 313 29 rmoveto
          -105 callsubr
          -122 295 callsubr
          12 21 hvcurveto
          4 vlineto
          25 13 8 36 vhcurveto
          51 -2 callsubr
          60 -104 callsubr
          41 -105 callgsubr
          -373 312 callgsubr
          -7 hlineto
          -97 -41 -44 -80 hvcurveto
          -12 2 callgsubr
          -13 vlineto
          -80 54 -53 97 vhcurveto
          endchar
        </CharString>
        <CharString name="dvDD">
          -44 187 -52 rmoveto
          -68 callsubr
          -92 135 rlineto
          13 -9 -10 7 -14 hhcurveto
          -259 675 rmoveto
          -16 -8 -7 -16 hvcurveto
          -58 vlineto
          -17 8 -6 16 vhcurveto
          267 hlineto
          7 4 -6 -8 hvcurveto
          -28 vlineto
          -9 -5 -5 -7 vhcurveto
          -80 hlineto
          -80 -55 -40 -82 hvcurveto
          -26 125 callgsubr
          64 4 callgsubr
        </CharString>
        <CharString name="dvDDA">
          -44 -6 623 rmoveto
          -16 -8 -7 -16 hvcurveto
          -58 vlineto
          -17 8 -6 16 vhcurveto
          267 hlineto
          7 4 -6 -8 hvcurveto
          -28 vlineto
          -9 -5 -5 -7 vhcurveto
          -80 hlineto
          -80 -55 -40 -82 hvcurveto
          -26 125 callgsubr
          64 4 callgsubr
        </CharString>
        <CharString name="dvDDH">
          -15 215 -32 rmoveto
          -68 callsubr
          -92 135 rlineto
          13 -9 -10 7 -14 hhcurveto
          18 63 rmoveto
          106 49 53 92 hvcurveto
          -53 callgsubr
          -499 hlineto
          79 callsubr
          endchar
        </CharString>
        <CharString name="dvDDHA">
          -15 299 31 rmoveto
          106 49 53 92 hvcurveto
          -53 callgsubr
          -499 hlineto
          79 callsubr
          endchar
        </CharString>
        <CharString name="dvDDH_DDHA">
          254 callsubr
          -86 vlineto
          -55 15 -44 31 -30 vhcurveto
          -30 -22 -15 -35 -49 160 callsubr
          77 hlineto
          54 callgsubr
          91 269 callgsubr
        </CharString>
        <CharString name="dvDDH_R">
          -15 326 -131 rmoveto
          13 -9 -10 7 -14 hhcurveto
          -66 hlineto
          -68 callsubr
          -424 889 rmoveto
          101 callsubr
          -78 30 -57 65 -23 vhcurveto
          -77 -103 rlineto
          -76 callsubr
          -77 105 rlineto
          53 20 125 callsubr
        </CharString>
        <CharString name="dvDDH_RA">
          254 callsubr
          -96 vlineto
          -78 29 -57 64 -23 vhcurveto
          -76 -102 232 callsubr
          103 rlineto
          53 21 125 callsubr
        </CharString>
        <CharString name="dvDDH_VA">
          -16 299 30 rmoveto
          13 13 1 1 11 hvcurveto
          -50 vlineto
          -34 -17 -28 -60 vhcurveto
          -19 hlineto
          406 callsubr
          -219 593 4 callsubr
          303 -21 callgsubr
          -89 hlineto
          235 callgsubr
          -97 vlineto
          -58 16 -46 35 -30 vhcurveto
          -27 -18 -17 -32 -55 420 callsubr
          119 vlineto
          7 19 4 22 25 vvcurveto
          33 vlineto
          68 -37 42 -92 -85 -26 -46 -57 vhcurveto
          -18 vlineto
          -20 7 -7 27 vhcurveto
          38 90 callsubr
          16 vlineto
          10 3 11 17 20 3 -11 -10 vhcurveto
          -30 vlineto
          -35 -14 -15 -40 vhcurveto
          -72 hlineto
          -50 -18 15 47 hvcurveto
          102 269 callgsubr
        </CharString>
        <CharString name="dvDDH_YA">
          503 828 248 75 callgsubr
          37 -82 hvcurveto
          -187 42 1 callsubr
          380 -97 callsubr
          -834 118 rmoveto
          79 callsubr
          87 hlineto
          106 49 53 92 hvcurveto
          201 callgsubr
          394 hlineto
          26 11 -12 -26 -25 -10 -15 9 callsubr
        </CharString>
        <CharString name="dvDDHxA">
          -15 308 -42 80 callgsubr
          -70 hlineto
          -83 callgsubr
          -9 138 rmoveto
          106 49 53 92 hvcurveto
          -53 callgsubr
          -499 hlineto
          79 callsubr
          endchar
        </CharString>
        <CharString name="dvDD_DDA">
          -16 -6 623 394 callgsubr
          7 4 -6 -8 hvcurveto
          -18 207 callsubr
          -98 365 callgsubr
          -16 186 callgsubr
          -41 -22 1 31 26 callgsubr
          -4 vlineto
          -43 10 -30 18 -20 vhcurveto
          -14 -15 -8 -23 -31 vvcurveto
          -6 186 callgsubr
          -40 -23 0 31 hvcurveto
          5 38 callsubr
          -7 vlineto
          -106 67 -24 93 vhcurveto
          113 251 callsubr
          34 vlineto
          78 -50 40 -80 vhcurveto
          -123 hlineto
          -20 -11 4 26 25 11 4 20 hvcurveto
          122 251 callsubr
          34 120 callsubr
        </CharString>
        <CharString name="dvDD_DDHA">
          -16 -6 623 394 callgsubr
          7 4 -6 -8 hvcurveto
          -18 207 callsubr
          -98 365 callgsubr
          -16 186 callgsubr
          -40 -23 2 30 26 callgsubr
          -5 vlineto
          -47 13 -31 22 -21 vhcurveto
          -25 -22 -12 -33 -44 160 callsubr
          99 251 callsubr
          34 120 callsubr
        </CharString>
        <CharString name="dvDD_R">
          -44 296 -172 rmoveto
          13 -9 -10 7 -14 hhcurveto
          -66 hlineto
          -68 callsubr
          -394 930 -73 callsubr
          -74 28 -39 47 -17 vhcurveto
          -79 -106 rlineto
          -76 callsubr
          -78 106 rlineto
          42 19 25 41 56 vvcurveto
          -14 callgsubr
          64 4 callgsubr
        </CharString>
        <CharString name="dvDD_RA">
          -44 -6 623 -73 callsubr
          -72 27 -39 45 -18 vhcurveto
          -78 -105 232 callsubr
          103 rlineto
          42 20 25 41 56 vvcurveto
          -14 callgsubr
          64 4 callgsubr
        </CharString>
        <CharString name="dvDD_VA">
          -16 240 -80 rmoveto
          406 callsubr
          39 hlineto
          31 28 4 7 25 hvcurveto
          -59 vlineto
          -34 -17 -28 -60 vhcurveto
          -265 703 394 callgsubr
          7 4 -6 -8 hvcurveto
          -18 207 callsubr
          -98 365 callgsubr
          -16 186 callgsubr
          -41 -22 1 31 26 callgsubr
          -5 vlineto
          -54 16 -32 28 -20 vhcurveto
          -20 -19 -12 -31 -46 420 callsubr
          203 120 callsubr
        </CharString>
        <CharString name="dvDD_YA">
          465 790 248 75 callgsubr
          37 -82 hvcurveto
          -185 42 1 callsubr
          378 -97 callsubr
          -796 118 -73 callsubr
          -112 65 -31 95 vhcurveto
          85 251 callsubr
          44 vlineto
          78 -50 40 -80 vhcurveto
          -95 hlineto
          -20 -11 3 30 hvcurveto
          4 vlineto
          28 11 4 20 vhcurveto
          387 hlineto
          26 11 -11 -26 -25 -10 -14 9 callsubr
        </CharString>
        <CharString name="dvDDxA">
          -44 273 -72 80 callgsubr
          -70 hlineto
          -83 callgsubr
          -279 760 rmoveto
          -16 -8 -7 -16 hvcurveto
          -58 vlineto
          -17 8 -6 16 vhcurveto
          267 hlineto
          7 4 -6 -8 hvcurveto
          -28 vlineto
          -9 -5 -5 -7 vhcurveto
          -80 hlineto
          -80 -55 -40 -82 hvcurveto
          -26 125 callgsubr
          64 4 callgsubr
        </CharString>
        <CharString name="dvDH">
          -202 210 178 rmoveto
          -63 callsubr
          6 -105 callgsubr
          -198 hlineto
          -11 callsubr
          -98 54 -55 97 vhcurveto
          83 hlineto
          91 47 62 74 callsubr
          -9 -6 -6 -8 -7 hvcurveto
          -20 -17 -18 -36 -55 hhcurveto
          37 445 rmoveto
          206 callgsubr
          150 -105 callgsubr
          endchar
        </CharString>
        <CharString name="dvDHA">
          42 206 519 rmoveto
          15 -78 callgsubr
          57 vlineto
          15 -8 8 -15 vhcurveto
          -212 hlineto
          -73 callgsubr
          73 337 callgsubr
          -31 vlineto
          -98 54 -55 97 vhcurveto
          83 hlineto
          43 31 20 25 12 hvcurveto
          4 -98 hlineto
          -107 callgsubr
          -231 hlineto
          -21 callsubr
          endchar
        </CharString>
        <CharString name="dvDH_MA">
          300 637 344 -40 callgsubr
          -331 320 callsubr
          48 -91 callsubr
          -277 vlineto
          -40 -13 -10 -42 vhcurveto
          -99 0 callgsubr
          -198 hlineto
          -11 callsubr
          -98 54 -55 97 vhcurveto
          145 hlineto
          76 69 37 89 hvcurveto
          16 -104 callsubr
          132 -97 callsubr
          -191 vlineto
          -107 callgsubr
          endchar
        </CharString>
        <CharString name="dvDH_NA">
          298 372 -33 callgsubr
          241 -91 callsubr
          -100 246 callsubr
          hvcurveto
          -1 118 callgsubr
          53 -105 callgsubr
          -245 hlineto
          129 callsubr
          36 29 11 16 24 hvcurveto
          2 -4 2 -3 2 -3 260 callsubr
          -9 33 22 144 callsubr
          -249 vlineto
          -107 callgsubr
          endchar
        </CharString>
        <CharString name="dvDH_N_YA">
          622 947 290 -97 callgsubr
          -594 -12 callsubr
          323 -47 callsubr
          -219 392 callgsubr
          hvcurveto
          -5 118 callgsubr
          53 -105 callgsubr
          -245 hlineto
          129 callsubr
          37 29 11 17 24 hvcurveto
          2 -3 1 -2 2 -2 260 callsubr
          -9 33 22 vvcurveto
          34 21 3 33 vhcurveto
          79 -12 hlineto
          -101 66 -105 146 vhcurveto
          33 hlineto
          59 38 20 33 19 hvcurveto
          4 -102 hlineto
          -107 callgsubr
          endchar
        </CharString>
        <CharString name="dvDH_R">
          -197 302 319 callgsubr
          88 -105 callgsubr
          -75 -563 rmoveto
          105 120 rlineto
          10 12 9 7 314 callgsubr
          -18 18 219 callgsubr
          -43 -43 -24 -22 -41 243 callgsubr
          13 -105 callgsubr
          -205 227 callgsubr
          -25 -11 -33 -37 vhcurveto
          -42 -46 rlineto
          -4 -5 -2 -3 -7 vvcurveto
          -8 6 -6 298 callsubr
          11 10 28 33 43 49 rrcurveto
          endchar
        </CharString>
        <CharString name="dvDH_RA">
          42 43 229 rmoveto
          -101 69 -43 154 callsubr
          50 60 rcurveline
          4 -98 hlineto
          -107 callgsubr
          -231 hlineto
          -21 callsubr
          17 90 callsubr
          57 vlineto
          15 -8 8 -15 vhcurveto
          -212 hlineto
          -73 callgsubr
          73 337 callgsubr
          endchar
        </CharString>
        <CharString name="dvDH_VA">
          323 306 42 callsubr
          -110 -59 -64 -106 -1 hvcurveto
          -47 vlineto
          -12 vlineto
          -20 -16 -19 -31 -51 -3 callsubr
          -198 hlineto
          -11 callsubr
          -98 54 -55 97 vhcurveto
          83 hlineto
          53 38 21 27 27 hvcurveto
          -32 30 44 -17 56 hhcurveto
          30 -98 callgsubr
        </CharString>
        <CharString name="dvDH_YA">
          392 717 -15 callgsubr
          -93 vlineto
          -14 1 -15 3 -14 vhcurveto
          -1 -1 rlineto
          -20 -17 -18 -36 -55 -3 callsubr
          -198 hlineto
          -11 callsubr
          -98 54 -55 97 vhcurveto
          83 hlineto
          62 42 29 33 28 hvcurveto
          -37 35 52 -25 71 hhcurveto
          33 hlineto
          59 38 20 33 19 hvcurveto
          4 -102 hlineto
          -107 callgsubr
          endchar
        </CharString>
        <CharString name="dvD_BA">
          -19 255 358 callgsubr
          -8 vlineto
          -104 87 rlineto
          8 -141 rmoveto
          445 callsubr
          hvcurveto
          33 vlineto
          9 1 8 2 7 vhcurveto
          126 -106 rlineto
          -2 354 callgsubr
          -256 703 2 callsubr
          435 callgsubr
          -37 vlineto
          -88 74 -46 98 vhcurveto
          61 hlineto
          99 62 60 104 hvcurveto
          270 -29 callsubr
        </CharString>
        <CharString name="dvD_BHA">
          29 175 callgsubr
          331 69 callgsubr
          -9 451 callgsubr
          46 hlineto
          33 21 13 18 9 hvcurveto
          4 -181 -123 68 callgsubr
          5 vlineto
          87 -2 -50 53 -104 hhcurveto
          -7 31 callgsubr
          -56 vlineto
          -16 8 -53 callsubr
          7 hlineto
          33 13 -12 -32 hvcurveto
          -169 vlineto
          -95 callgsubr
          62 hlineto
          226 callgsubr
          42 -104 callsubr
          123 -103 -29 callgsubr
          514 vlineto
          17 -8 6 -16 vhcurveto
          -67 237 callgsubr
          -17 hvcurveto
          -7 vlineto
          -32 -18 -16 -27 vhcurveto
          -49 124 callgsubr
          6 vlineto
          47 18 21 45 vhcurveto
          156 hlineto
          29 21 16 34 hvcurveto
          97 -104 callsubr
          73 -78 callsubr
          endchar
        </CharString>
        <CharString name="dvD_B_RA">
          -19 255 65 rmoveto
          33 26 9 18 9 hvcurveto
          4 -110 hlineto
          -7 -1 -7 -1 -6 vhcurveto
          -120 102 rlineto
          1 3 3 0 3 hhcurveto
          -46 -56 rmoveto
          4 0 3 1 3 vhcurveto
          114 -97 rlineto
          -1 -5 -7 -1 -7 hhcurveto
          -23 hlineto
          445 callsubr
          hvcurveto
          -174 651 2 callsubr
          -55 14 -43 31 -28 vhcurveto
          -19 -21 -13 -31 -45 vvcurveto
          -47 vlineto
          -83 66 -44 90 -5 vhcurveto
          -82 -73 320 callgsubr
          10 5 11 11 hvcurveto
          128 129 rlineto
          0 vlineto
          27 28 15 40 51 vvcurveto
          270 -29 callsubr
        </CharString>
        <CharString name="dvD_DA">
          -11 111 243 rmoveto
          -37 -12 -21 -33 -56 vvcurveto
          -9 vlineto
          -92 53 -41 100 vhcurveto
          56 hlineto
          33 20 10 83 callgsubr
          218 vlineto
          17 -8 6 -16 vhcurveto
          -67 237 callgsubr
          -17 hvcurveto
          -34 vlineto
          -32 -18 -10 -27 vhcurveto
          -52 hlineto
          -51 -9 10 31 hvcurveto
          9 vlineto
          32 14 10 32 vhcurveto
          46 293 callsubr
          16 -80 callsubr
          -50 hlineto
          -35 -11 9 26 -1 hvcurveto
          4 vlineto
          31 13 7 36 vhcurveto
          134 -2 callsubr
          76 -104 callsubr
          77 -105 callgsubr
          -503 hlineto
          -16 -8 -8 -14 hvcurveto
          -59 382 callsubr
          285 -97 callsubr
          -21 -19 callsubr
          -83 hlineto
          -102 -44 -44 -82 hvcurveto
          -4 vlineto
          1 -53 25 -31 35 -9 rrcurveto
          endchar
        </CharString>
        <CharString name="dvD_DHA">
          179 175 callgsubr
          504 94 callgsubr
          -47 -57 -109 hvcurveto
          412 callgsubr
          -55 hlineto
          284 callsubr
          10 vlineto
          26 13 10 18 vhcurveto
          9 -89 callsubr
          53 vlineto
          15 -81 callsubr
          -5 237 callsubr
          -89 -29 callgsubr
          257 -29 callsubr
        </CharString>
        <CharString name="dvD_GA">
          -19 146 callgsubr
          4 vlineto
          33 21 13 18 9 hvcurveto
          4 -139 -29 callgsubr
          307 -29 callsubr
        </CharString>
        <CharString name="dvD_GHA">
          179 204 38 rmoveto
          284 callsubr
          20 vlineto
          26 13 10 18 vhcurveto
          66 hlineto
          -1 -8 0 -8 -9 vvcurveto
          412 callgsubr
          -265 585 4 callsubr
          504 -21 callgsubr
          -97 hlineto
          -60 -41 -17 -34 -25 hvcurveto
          -91 237 callsubr
          -79 hlineto
          410 callgsubr
          67 hlineto
          226 callgsubr
          247 -29 callsubr
        </CharString>
        <CharString name="dvD_G_RA">
          1 146 callgsubr
          24 vlineto
          33 21 13 18 9 hvcurveto
          4 -92 hlineto
          -225 -217 131 callgsubr
          90 91 rlineto
          -68 38 callgsubr
          467 vlineto
          17 -8 6 -16 vhcurveto
          -67 237 callgsubr
          -17 hvcurveto
          -47 vlineto
          -32 -18 -16 -27 vhcurveto
          -66 124 callgsubr
          63 vlineto
          47 18 21 45 vhcurveto
          156 hlineto
          29 21 16 34 hvcurveto
          97 -104 callsubr
          70 -78 callsubr
          endchar
        </CharString>
        <CharString name="dvD_MA">
          221 538 198 117 callsubr
          -97 68 callgsubr
          81 vlineto
          17 -8 6 -16 vhcurveto
          -67 237 callgsubr
          -17 hvcurveto
          -7 vlineto
          -32 -18 -16 -27 vhcurveto
          -31 124 callgsubr
          4 vlineto
          47 18 21 45 vhcurveto
          131 hlineto
          29 21 16 34 hvcurveto
          97 -104 callsubr
          112 -97 callsubr
          -544 402 callgsubr
          281 -21 callgsubr
          -72 hlineto
          235 callgsubr
          -7 451 callgsubr
          28 hlineto
          33 21 13 18 9 hvcurveto
          4 -139 -29 callgsubr
          56 -104 callsubr
          97 -97 callsubr
          -109 vlineto
          -25 callsubr
          546 -106 callsubr
          endchar
        </CharString>
        <CharString name="dvD_NA">
          479 439 -56 rmoveto
          13 -9 -10 7 -14 hhcurveto
          -66 hlineto
          -68 callsubr
          -537 814 2 callsubr
          -103 51 -66 116 vhcurveto
          43 89 callsubr
          237 vlineto
          17 -8 6 -16 vhcurveto
          -67 237 callgsubr
          -17 hvcurveto
          -47 vlineto
          -32 -18 -16 -27 vhcurveto
          -46 124 callgsubr
          63 vlineto
          47 18 21 45 vhcurveto
          156 hlineto
          29 21 16 34 hvcurveto
          97 -104 callsubr
          355 hlineto
          251 callgsubr
          -73 -51 -46 -71 391 callsubr
          hvcurveto
          -51 callgsubr
          -259 vlineto
          -107 callgsubr
          endchar
        </CharString>
        <CharString name="dvD_R">
          -19 356 -72 rmoveto
          13 -9 -10 7 -14 hhcurveto
          -66 hlineto
          -68 callsubr
          -454 830 2 callsubr
          -22 callgsubr
        </CharString>
        <CharString name="dvD_RA">
          -19 250 callgsubr
          -22 callgsubr
        </CharString>
        <CharString name="dvD_VA">
          -19 250 358 callgsubr
          -34 -12 -28 -60 vhcurveto
          -9 422 callsubr
          -225 562 2 callsubr
          -56 15 -45 32 -29 vhcurveto
          -23 -20 -16 -34 -49 vvcurveto
          -25 vlineto
          -100 71 -52 98 vhcurveto
          51 hlineto
          111 53 57 113 hvcurveto
          270 -29 callsubr
        </CharString>
        <CharString name="dvD_YA">
          57 176 483 rmoveto
          -95 -41 -44 -80 hvcurveto
          -12 2 callgsubr
          -13 vlineto
          -80 54 -50 97 vhcurveto
          101 hlineto
          43 31 20 25 12 hvcurveto
          4 -54 hlineto
          -107 callgsubr
          -571 312 callgsubr
          70 -93 rmoveto
          33 26 15 40 hvcurveto
          60 -104 callsubr
          44 -97 callsubr
          -283 vlineto
          -50 -21 -39 -78 vhcurveto
          -92 295 callsubr
          11 20 hvcurveto
          4 vlineto
          25 13 10 36 vhcurveto
          endchar
        </CharString>
        <CharString name="dvE">
          18 -6 623 81 callsubr
        </CharString>
        <CharString name="dvEcandra">
          16 314 698 rmoveto
          77 41 48 80 hvcurveto
          8 vlineto
          22 -9 12 -20 vhcurveto
          -49 hlineto
          -16 -10 342 callsubr
          -10 -11 -26 vhcurveto
          -63 45 callsubr
          -213 -75 81 callsubr
        </CharString>
        <CharString name="dvEight">
          20 354 166 rmoveto
          -44 -17 -18 -45 vhcurveto
          -62 hlineto
          -45 -17 18 44 hvcurveto
          44 vlineto
          44 17 21 45 vhcurveto
          62 hlineto
          45 17 -21 -44 hvcurveto
          -186 267 rmoveto
          44 17 18 45 vhcurveto
          62 hlineto
          45 17 -18 -44 hvcurveto
          -40 vlineto
          -43 -17 -22 -45 vhcurveto
          -62 hlineto
          -45 -17 22 43 hvcurveto
          306 46 rmoveto
          103 -60 57 -102 vhcurveto
          -101 hlineto
          -103 -60 -57 -103 hvcurveto
          -37 vlineto
          -63 23 -39 43 -21 vhcurveto
          -43 -20 -23 -40 -63 vvcurveto
          -40 vlineto
          -103 60 -57 103 vhcurveto
          101 hlineto
          102 60 57 103 hvcurveto
          39 vlineto
          64 -23 39 -43 21 vhcurveto
          43 21 23 38 64 vvcurveto
          endchar
        </CharString>
        <CharString name="dvEyelash">
          -310 198 186 callsubr
          -204 -59 callgsubr
          168 -247 rmoveto
          99 47 62 74 callsubr
          -8 -6 -4 -7 -6 hvcurveto
          -20 -18 -16 -39 -58 hhcurveto
          -63 153 callgsubr
          endchar
        </CharString>
        <CharString name="dvEyelash_HA">
          136 -6 623 187 callgsubr
          463 -91 callsubr
          157 callsubr
          -73 -50 -22 -63 -14 hvcurveto
          -40 153 callgsubr
          51 hlineto
          9 -15 13 -10 15 -7 rrcurveto
          16 callgsubr
          endchar
        </CharString>
        <CharString name="dvEyelash_YA">
          246 571 103 callgsubr
          -75 -36 35 58 hvcurveto
          9 197 callgsubr
          42 11 callsubr
          -577 83 callsubr
          306 hlineto
          91 callgsubr
          -32 276 callgsubr
          -113 153 callgsubr
          20 -11 hlineto
          -101 66 -88 146 vhcurveto
          33 hlineto
          59 38 20 33 19 hvcurveto
          4 -102 hlineto
          -107 callgsubr
          endchar
        </CharString>
        <CharString name="dvFive">
          -7 335 255 rmoveto
          -93 vlineto
          -43 -20 -19 -45 vhcurveto
          -49 hlineto
          -44 -17 19 43 hvcurveto
          21 vlineto
          15 -7 5 -14 vhcurveto
          -79 hlineto
          -14 -6 -5 -15 hvcurveto
          -22 vlineto
          -103 60 -58 102 vhcurveto
          87 hlineto
          103 60 58 103 hvcurveto
          112 vlineto
          102 -53 51 -101 vhcurveto
          -46 hlineto
          -44 -29 -19 -31 -11 hvcurveto
          155 246 vlineto
          15 5 7 13 hvcurveto
          72 vlineto
          13 -5 7 -15 vhcurveto
          -346 hlineto
          -15 238 callsubr
          -315 vlineto
          -15 7 -5 13 vhcurveto
          78 hlineto
          33 -14 43 51 hhcurveto
          50 hlineto
          52 17 -17 -58 hvcurveto
          endchar
        </CharString>
        <CharString name="dvFour">
          8 400 hmoveto
          13 5 4 16 hvcurveto
          98 73 vlineto
          14 5 8 14 hvcurveto
          64 vlineto
          13 -5 5 -14 vhcurveto
          -73 386 hlineto
          22 -14 13 -21 vhcurveto
          -107 hlineto
          -22 -9 -7 -22 -11 hvcurveto
          -205 -377 rlineto
          -7 -13 -3 -13 -21 vvcurveto
          -37 vlineto
          -22 14 -13 21 vhcurveto
          252 -98 hlineto
          -15 7 -5 13 vhcurveto
          -20 542 rmoveto
          -320 -171 vlineto
          endchar
        </CharString>
        <CharString name="dvG">
          -217 291 186 callsubr
          -297 hlineto
          -96 callgsubr
          endchar
        </CharString>
        <CharString name="dvGA">
          21 -6 623 171 callsubr
          -482 vlineto
          -107 callgsubr
          endchar
        </CharString>
        <CharString name="dvGH">
          -203 210 178 rmoveto
          -63 callsubr
          223 -105 callgsubr
          -415 hlineto
          -11 callsubr
          -98 54 -55 97 vhcurveto
          83 hlineto
          91 47 62 74 callsubr
          -9 -6 -5 -8 -7 hvcurveto
          -20 -17 -18 -37 -55 hhcurveto
          endchar
        </CharString>
</ttFont>
